G04*
G04 #@! TF.GenerationSoftware,Altium Limited,Altium Designer,22.5.1 (42)*
G04*
G04 Layer_Color=32896*
%FSLAX25Y25*%
%MOIN*%
G70*
G04*
G04 #@! TF.SameCoordinates,6DAD0714-FCB9-4B36-A7BF-7B223F3C5BEE*
G04*
G04*
G04 #@! TF.FilePolarity,Positive*
G04*
G01*
G75*
%ADD10C,0.01000*%
%ADD11C,0.00787*%
%ADD14C,0.00400*%
%ADD84C,0.00984*%
%ADD85C,0.02362*%
%ADD86C,0.00800*%
D10*
X143524Y98500D02*
G03*
X143524Y98500I-500J0D01*
G01*
X172055Y90768D02*
X181898D01*
X172055Y74232D02*
Y90768D01*
Y74232D02*
X191740D01*
Y90768D01*
X181898D02*
X191740D01*
D11*
X158543Y63413D02*
Y77342D01*
X151457Y63413D02*
Y77342D01*
Y63413D02*
X158543D01*
X151495Y77342D02*
X158543D01*
X166043Y63566D02*
Y77496D01*
X158957Y63566D02*
Y77496D01*
Y63566D02*
X166043D01*
X158994Y77496D02*
X166043D01*
Y79413D02*
Y93343D01*
X158957Y79413D02*
Y93343D01*
Y79413D02*
X166043D01*
X158994Y93343D02*
X166043D01*
X155043Y56606D02*
Y57394D01*
X157996Y56606D02*
Y57394D01*
X166043Y47720D02*
Y61650D01*
X158957Y47720D02*
Y61650D01*
Y47720D02*
X166043D01*
X158994Y61650D02*
X166043D01*
X4209Y86717D02*
X42791D01*
X4209Y101284D02*
X42791D01*
Y86717D02*
Y101284D01*
X4209Y86717D02*
Y101284D01*
X45043Y98606D02*
Y99394D01*
X47996Y98606D02*
Y99394D01*
X52043Y78720D02*
Y92650D01*
X44957Y78720D02*
Y92650D01*
Y78720D02*
X52043D01*
X44995Y92650D02*
X52043D01*
Y62720D02*
Y76650D01*
X44957Y62720D02*
Y76650D01*
Y62720D02*
X52043D01*
X44995Y76650D02*
X52043D01*
X48457Y55862D02*
Y56650D01*
X45504Y55862D02*
Y56650D01*
X4209Y54216D02*
Y68783D01*
X42791Y54216D02*
Y68783D01*
X4209D02*
X42791D01*
X4209Y54216D02*
X42791D01*
X174504Y48961D02*
Y69039D01*
X187496Y48961D02*
Y69039D01*
X174504Y48961D02*
X187496D01*
X174504Y69039D02*
X187496D01*
D14*
X149833Y71042D02*
X150250Y70626D01*
Y69792D01*
X149833Y69376D01*
X148167D01*
X147750Y69792D01*
Y70626D01*
X148167Y71042D01*
X150250Y71875D02*
Y73541D01*
X149833D01*
X148167Y71875D01*
X147750D01*
X169333Y71042D02*
X169750Y70626D01*
Y69792D01*
X169333Y69376D01*
X167667D01*
X167250Y69792D01*
Y70626D01*
X167667Y71042D01*
X167250Y71875D02*
Y72708D01*
Y72292D01*
X169750D01*
X169333Y71875D01*
Y73958D02*
X169750Y74374D01*
Y75208D01*
X169333Y75624D01*
X167667D01*
X167250Y75208D01*
Y74374D01*
X167667Y73958D01*
X169333D01*
X162917Y96333D02*
X163333Y96750D01*
X164166D01*
X164583Y96333D01*
Y94667D01*
X164166Y94250D01*
X163333D01*
X162917Y94667D01*
X162083Y96333D02*
X161667Y96750D01*
X160834D01*
X160417Y96333D01*
Y95916D01*
X160834Y95500D01*
X160417Y95083D01*
Y94667D01*
X160834Y94250D01*
X161667D01*
X162083Y94667D01*
Y95083D01*
X161667Y95500D01*
X162083Y95916D01*
Y96333D01*
X161667Y95500D02*
X160834D01*
X150750Y53917D02*
X153250D01*
Y55167D01*
X152833Y55584D01*
X152000D01*
X151584Y55167D01*
Y53917D01*
Y54750D02*
X150750Y55584D01*
Y57666D02*
X153250D01*
X152000Y56416D01*
Y58083D01*
X162917Y46333D02*
X163333Y46750D01*
X164166D01*
X164583Y46333D01*
Y44667D01*
X164166Y44250D01*
X163333D01*
X162917Y44667D01*
X162083D02*
X161667Y44250D01*
X160834D01*
X160417Y44667D01*
Y46333D01*
X160834Y46750D01*
X161667D01*
X162083Y46333D01*
Y45917D01*
X161667Y45500D01*
X160417D01*
X26665Y109250D02*
Y111750D01*
X25416D01*
X24999Y111333D01*
Y110500D01*
X25416Y110083D01*
X26665D01*
X22500Y111333D02*
X22917Y111750D01*
X23750D01*
X24166Y111333D01*
Y109667D01*
X23750Y109250D01*
X22917D01*
X22500Y109667D01*
X21667Y109250D02*
Y110916D01*
X20834Y111750D01*
X20001Y110916D01*
Y109250D01*
Y110500D01*
X21667D01*
X19168Y109250D02*
X18335D01*
X18751D01*
Y111750D01*
X19168Y111333D01*
X49750Y95876D02*
X52250D01*
Y97126D01*
X51833Y97542D01*
X51000D01*
X50583Y97126D01*
Y95876D01*
Y96709D02*
X49750Y97542D01*
Y98375D02*
Y99208D01*
Y98792D01*
X52250D01*
X51833Y98375D01*
Y100458D02*
X52250Y100874D01*
Y101707D01*
X51833Y102124D01*
X51416D01*
X51000Y101707D01*
Y101291D01*
Y101707D01*
X50583Y102124D01*
X50167D01*
X49750Y101707D01*
Y100874D01*
X50167Y100458D01*
X56333Y84459D02*
X56750Y84042D01*
Y83209D01*
X56333Y82793D01*
X54667D01*
X54250Y83209D01*
Y84042D01*
X54667Y84459D01*
X54250Y85292D02*
Y86125D01*
Y85708D01*
X56750D01*
X56333Y85292D01*
X54250Y87374D02*
Y88208D01*
Y87791D01*
X56750D01*
X56333Y87374D01*
Y68042D02*
X56750Y67626D01*
Y66793D01*
X56333Y66376D01*
X54667D01*
X54250Y66793D01*
Y67626D01*
X54667Y68042D01*
X54250Y68875D02*
Y69708D01*
Y69292D01*
X56750D01*
X56333Y68875D01*
X54250Y72624D02*
Y70958D01*
X55917Y72624D01*
X56333D01*
X56750Y72207D01*
Y71374D01*
X56333Y70958D01*
X50250Y53376D02*
X52750D01*
Y54626D01*
X52333Y55042D01*
X51500D01*
X51083Y54626D01*
Y53376D01*
Y54209D02*
X50250Y55042D01*
Y55875D02*
Y56708D01*
Y56292D01*
X52750D01*
X52333Y55875D01*
X50250Y59207D02*
X52750D01*
X51500Y57958D01*
Y59624D01*
X18918Y45750D02*
Y43250D01*
X20168D01*
X20584Y43667D01*
Y44500D01*
X20168Y44916D01*
X18918D01*
X23083Y43667D02*
X22667Y43250D01*
X21834D01*
X21417Y43667D01*
Y45333D01*
X21834Y45750D01*
X22667D01*
X23083Y45333D01*
X23916Y45750D02*
Y44083D01*
X24750Y43250D01*
X25583Y44083D01*
Y45750D01*
Y44500D01*
X23916D01*
X28082Y45750D02*
X26416D01*
X28082Y44083D01*
Y43667D01*
X27665Y43250D01*
X26832D01*
X26416Y43667D01*
X134583Y51750D02*
Y49667D01*
X134166Y49250D01*
X133333D01*
X132916Y49667D01*
Y51750D01*
X130834Y49250D02*
Y51750D01*
X132083Y50500D01*
X130417D01*
X183583Y47250D02*
Y45167D01*
X183166Y44750D01*
X182333D01*
X181916Y45167D01*
Y47250D01*
X179417Y44750D02*
X181084D01*
X179417Y46417D01*
Y46833D01*
X179834Y47250D01*
X180667D01*
X181084Y46833D01*
X183166Y95750D02*
Y93250D01*
X181500D01*
X180667D02*
X179834D01*
X180250D01*
Y95750D01*
X180667Y95333D01*
D84*
X43677Y82386D02*
G03*
X43677Y82386I-492J0D01*
G01*
Y49886D02*
G03*
X43677Y49886I-492J0D01*
G01*
X170665Y48153D02*
G03*
X170665Y48153I-492J0D01*
G01*
D85*
X40035Y90654D02*
G03*
X40035Y90654I-1181J0D01*
G01*
Y58153D02*
G03*
X40035Y58153I-1181J0D01*
G01*
X179622Y52898D02*
G03*
X179622Y52898I-1181J0D01*
G01*
D86*
X139177Y55301D02*
G03*
X140685Y56397I206J1302D01*
G01*
X127266Y96699D02*
G03*
X125362Y95212I-208J-1695D01*
G01*
X125361Y56800D02*
G03*
X126861Y55300I1500J0D01*
G01*
X140685Y95191D02*
G03*
X139589Y96699I-1302J206D01*
G01*
X130624Y96500D02*
G03*
X135624Y96500I2500J0D01*
G01*
X125361Y56800D02*
Y95200D01*
X140686Y56406D02*
Y95200D01*
X126861Y55300D02*
X139186D01*
X127305Y96700D02*
X130624D01*
X135624D02*
X139580D01*
M02*
