G04*
G04 #@! TF.GenerationSoftware,Altium Limited,Altium Designer,22.5.1 (42)*
G04*
G04 Layer_Color=2752767*
%FSLAX25Y25*%
%MOIN*%
G70*
G04*
G04 #@! TF.SameCoordinates,902E8C23-112A-47C9-B83F-8B80DC396133*
G04*
G04*
G04 #@! TF.FilePolarity,Positive*
G04*
G01*
G75*
%ADD10C,0.00000*%
%ADD11C,0.00200*%
%ADD12C,0.00267*%
D10*
X224654Y63063D02*
G03*
X223256Y61665I0J-1398D01*
G01*
X226051D02*
G03*
X224654Y63063I-1398J0D01*
G01*
Y59087D02*
G03*
X226051Y60484I0J1398D01*
G01*
X223256D02*
G03*
X224654Y59087I1398J0D01*
G01*
X223256Y60484D02*
Y61665D01*
X226051Y60484D02*
Y61665D01*
D11*
X79500Y91700D02*
X78700Y93300D01*
X80300D01*
X79500Y91700D01*
Y101700D02*
X78700Y103300D01*
X80300D01*
X79500Y101700D01*
X89500Y91700D02*
X88700Y93300D01*
X90300D01*
X89500Y91700D01*
Y101700D02*
X88700Y103300D01*
X90300D01*
X89500Y101700D01*
X101500Y101200D02*
X100700Y102800D01*
X102300D01*
X101500Y101200D01*
X111500D02*
X110700Y102800D01*
X112300D01*
X111500Y101200D01*
X101500Y91200D02*
X100700Y92800D01*
X102300D01*
X101500Y91200D01*
X111500D02*
X110700Y92800D01*
X112300D01*
X111500Y91200D01*
X101500Y81200D02*
X100700Y82800D01*
X102300D01*
X101500Y81200D01*
X111500D02*
X110700Y82800D01*
X112300D01*
X111500Y81200D01*
X101500Y71200D02*
X100700Y72800D01*
X102300D01*
X101500Y71200D01*
X111500D02*
X110700Y72800D01*
X112300D01*
X111500Y71200D01*
X101500Y61200D02*
X100700Y62800D01*
X102300D01*
X101500Y61200D01*
X111500D02*
X110700Y62800D01*
X112300D01*
X111500Y61200D01*
X101500Y51200D02*
X100700Y52800D01*
X102300D01*
X101500Y51200D01*
X111500D02*
X110700Y52800D01*
X112300D01*
X111500Y51200D01*
X224254Y29179D02*
Y28779D01*
X225054D01*
Y29179D01*
X225453D01*
Y29979D01*
X225054D01*
Y30379D01*
X224254D01*
Y29979D01*
X223853D01*
Y29179D01*
X224254D01*
Y60675D02*
Y60275D01*
X225054D01*
Y60675D01*
X225453D01*
Y61475D01*
X225054D01*
Y61875D01*
X224254D01*
Y61475D01*
X223853D01*
Y60675D01*
X224254D01*
X218224Y28779D02*
X218624Y29579D01*
X218224Y30379D01*
X219024Y29979D01*
X219824Y30379D01*
X219424Y29579D01*
X219824Y28779D01*
X219024Y29179D01*
X218224Y28779D01*
Y60275D02*
X218624Y61075D01*
X218224Y61875D01*
X219024Y61475D01*
X219824Y61875D01*
X219424Y61075D01*
X219824Y60275D01*
X219024Y60675D01*
X218224Y60275D01*
X229484Y28779D02*
X229884Y29579D01*
X229484Y30379D01*
X230283Y29979D01*
X231083Y30379D01*
X230683Y29579D01*
X231083Y28779D01*
X230283Y29179D01*
X229484Y28779D01*
Y60275D02*
X229884Y61075D01*
X229484Y61875D01*
X230283Y61475D01*
X231083Y61875D01*
X230683Y61075D01*
X231083Y60275D01*
X230283Y60675D01*
X229484Y60275D01*
X219700Y12200D02*
X220100D01*
X220500Y12600D01*
X220900Y12200D01*
X221300D01*
Y12600D01*
X220900Y13000D01*
X221300Y13400D01*
Y13800D01*
X220900D01*
X220500Y13400D01*
X220100Y13800D01*
X219700D01*
Y13400D01*
X220100Y13000D01*
X219700Y12600D01*
Y12200D01*
X196000Y17200D02*
X196400Y17600D01*
X196800D01*
X196400Y18000D01*
X196800Y18400D01*
X196400D01*
X196000Y18800D01*
X195600Y18400D01*
X195200D01*
X195600Y18000D01*
X195200Y17600D01*
X195600D01*
X196000Y17200D01*
Y7200D02*
X196400Y7600D01*
X196800D01*
X196400Y8000D01*
X196800Y8400D01*
X196400D01*
X196000Y8800D01*
X195600Y8400D01*
X195200D01*
X195600Y8000D01*
X195200Y7600D01*
X195600D01*
X196000Y7200D01*
Y27200D02*
X196400Y27600D01*
X196800D01*
X196400Y28000D01*
X196800Y28400D01*
X196400D01*
X196000Y28800D01*
X195600Y28400D01*
X195200D01*
X195600Y28000D01*
X195200Y27600D01*
X195600D01*
X196000Y27200D01*
X173500Y32200D02*
X173900Y32600D01*
X174300D01*
X173900Y33000D01*
X174300Y33400D01*
X173900D01*
X173500Y33800D01*
X173100Y33400D01*
X172700D01*
X173100Y33000D01*
X172700Y32600D01*
X173100D01*
X173500Y32200D01*
X163500D02*
X163900Y32600D01*
X164300D01*
X163900Y33000D01*
X164300Y33400D01*
X163900D01*
X163500Y33800D01*
X163100Y33400D01*
X162700D01*
X163100Y33000D01*
X162700Y32600D01*
X163100D01*
X163500Y32200D01*
X183500D02*
X183900Y32600D01*
X184300D01*
X183900Y33000D01*
X184300Y33400D01*
X183900D01*
X183500Y33800D01*
X183100Y33400D01*
X182700D01*
X183100Y33000D01*
X182700Y32600D01*
X183100D01*
X183500Y32200D01*
X173500Y19200D02*
X173900Y19600D01*
X174300D01*
X173900Y20000D01*
X174300Y20400D01*
X173900D01*
X173500Y20800D01*
X173100Y20400D01*
X172700D01*
X173100Y20000D01*
X172700Y19600D01*
X173100D01*
X173500Y19200D01*
X163500D02*
X163900Y19600D01*
X164300D01*
X163900Y20000D01*
X164300Y20400D01*
X163900D01*
X163500Y20800D01*
X163100Y20400D01*
X162700D01*
X163100Y20000D01*
X162700Y19600D01*
X163100D01*
X163500Y19200D01*
X183500D02*
X183900Y19600D01*
X184300D01*
X183900Y20000D01*
X184300Y20400D01*
X183900D01*
X183500Y20800D01*
X183100Y20400D01*
X182700D01*
X183100Y20000D01*
X182700Y19600D01*
X183100D01*
X183500Y19200D01*
X173500Y6700D02*
X173900Y7100D01*
X174300D01*
X173900Y7500D01*
X174300Y7900D01*
X173900D01*
X173500Y8300D01*
X173100Y7900D01*
X172700D01*
X173100Y7500D01*
X172700Y7100D01*
X173100D01*
X173500Y6700D01*
X163500D02*
X163900Y7100D01*
X164300D01*
X163900Y7500D01*
X164300Y7900D01*
X163900D01*
X163500Y8300D01*
X163100Y7900D01*
X162700D01*
X163100Y7500D01*
X162700Y7100D01*
X163100D01*
X163500Y6700D01*
X183500D02*
X183900Y7100D01*
X184300D01*
X183900Y7500D01*
X184300Y7900D01*
X183900D01*
X183500Y8300D01*
X183100Y7900D01*
X182700D01*
X183100Y7500D01*
X182700Y7100D01*
X183100D01*
X183500Y6700D01*
X138500Y32200D02*
X138900Y32600D01*
X139300D01*
X138900Y33000D01*
X139300Y33400D01*
X138900D01*
X138500Y33800D01*
X138100Y33400D01*
X137700D01*
X138100Y33000D01*
X137700Y32600D01*
X138100D01*
X138500Y32200D01*
X128500D02*
X128900Y32600D01*
X129300D01*
X128900Y33000D01*
X129300Y33400D01*
X128900D01*
X128500Y33800D01*
X128100Y33400D01*
X127700D01*
X128100Y33000D01*
X127700Y32600D01*
X128100D01*
X128500Y32200D01*
X148500D02*
X148900Y32600D01*
X149300D01*
X148900Y33000D01*
X149300Y33400D01*
X148900D01*
X148500Y33800D01*
X148100Y33400D01*
X147700D01*
X148100Y33000D01*
X147700Y32600D01*
X148100D01*
X148500Y32200D01*
X138625Y19200D02*
X139025Y19600D01*
X139425D01*
X139025Y20000D01*
X139425Y20400D01*
X139025D01*
X138625Y20800D01*
X138225Y20400D01*
X137825D01*
X138225Y20000D01*
X137825Y19600D01*
X138225D01*
X138625Y19200D01*
X128625D02*
X129025Y19600D01*
X129425D01*
X129025Y20000D01*
X129425Y20400D01*
X129025D01*
X128625Y20800D01*
X128225Y20400D01*
X127825D01*
X128225Y20000D01*
X127825Y19600D01*
X128225D01*
X128625Y19200D01*
X148625D02*
X149025Y19600D01*
X149425D01*
X149025Y20000D01*
X149425Y20400D01*
X149025D01*
X148625Y20800D01*
X148225Y20400D01*
X147825D01*
X148225Y20000D01*
X147825Y19600D01*
X148225D01*
X148625Y19200D01*
X138625Y6700D02*
X139025Y7100D01*
X139425D01*
X139025Y7500D01*
X139425Y7900D01*
X139025D01*
X138625Y8300D01*
X138225Y7900D01*
X137825D01*
X138225Y7500D01*
X137825Y7100D01*
X138225D01*
X138625Y6700D01*
X128625D02*
X129025Y7100D01*
X129425D01*
X129025Y7500D01*
X129425Y7900D01*
X129025D01*
X128625Y8300D01*
X128225Y7900D01*
X127825D01*
X128225Y7500D01*
X127825Y7100D01*
X128225D01*
X128625Y6700D01*
X148625D02*
X149025Y7100D01*
X149425D01*
X149025Y7500D01*
X149425Y7900D01*
X149025D01*
X148625Y8300D01*
X148225Y7900D01*
X147825D01*
X148225Y7500D01*
X147825Y7100D01*
X148225D01*
X148625Y6700D01*
X104000Y32200D02*
X104400Y32600D01*
X104800D01*
X104400Y33000D01*
X104800Y33400D01*
X104400D01*
X104000Y33800D01*
X103600Y33400D01*
X103200D01*
X103600Y33000D01*
X103200Y32600D01*
X103600D01*
X104000Y32200D01*
X94000D02*
X94400Y32600D01*
X94800D01*
X94400Y33000D01*
X94800Y33400D01*
X94400D01*
X94000Y33800D01*
X93600Y33400D01*
X93200D01*
X93600Y33000D01*
X93200Y32600D01*
X93600D01*
X94000Y32200D01*
X114000D02*
X114400Y32600D01*
X114800D01*
X114400Y33000D01*
X114800Y33400D01*
X114400D01*
X114000Y33800D01*
X113600Y33400D01*
X113200D01*
X113600Y33000D01*
X113200Y32600D01*
X113600D01*
X114000Y32200D01*
X104000Y19200D02*
X104400Y19600D01*
X104800D01*
X104400Y20000D01*
X104800Y20400D01*
X104400D01*
X104000Y20800D01*
X103600Y20400D01*
X103200D01*
X103600Y20000D01*
X103200Y19600D01*
X103600D01*
X104000Y19200D01*
X94000D02*
X94400Y19600D01*
X94800D01*
X94400Y20000D01*
X94800Y20400D01*
X94400D01*
X94000Y20800D01*
X93600Y20400D01*
X93200D01*
X93600Y20000D01*
X93200Y19600D01*
X93600D01*
X94000Y19200D01*
X114000D02*
X114400Y19600D01*
X114800D01*
X114400Y20000D01*
X114800Y20400D01*
X114400D01*
X114000Y20800D01*
X113600Y20400D01*
X113200D01*
X113600Y20000D01*
X113200Y19600D01*
X113600D01*
X114000Y19200D01*
X104000Y6700D02*
X104400Y7100D01*
X104800D01*
X104400Y7500D01*
X104800Y7900D01*
X104400D01*
X104000Y8300D01*
X103600Y7900D01*
X103200D01*
X103600Y7500D01*
X103200Y7100D01*
X103600D01*
X104000Y6700D01*
X94000D02*
X94400Y7100D01*
X94800D01*
X94400Y7500D01*
X94800Y7900D01*
X94400D01*
X94000Y8300D01*
X93600Y7900D01*
X93200D01*
X93600Y7500D01*
X93200Y7100D01*
X93600D01*
X94000Y6700D01*
X114000D02*
X114400Y7100D01*
X114800D01*
X114400Y7500D01*
X114800Y7900D01*
X114400D01*
X114000Y8300D01*
X113600Y7900D01*
X113200D01*
X113600Y7500D01*
X113200Y7100D01*
X113600D01*
X114000Y6700D01*
X68875D02*
X69275Y7100D01*
X69675D01*
X69275Y7500D01*
X69675Y7900D01*
X69275D01*
X68875Y8300D01*
X68475Y7900D01*
X68075D01*
X68475Y7500D01*
X68075Y7100D01*
X68475D01*
X68875Y6700D01*
X58875D02*
X59275Y7100D01*
X59675D01*
X59275Y7500D01*
X59675Y7900D01*
X59275D01*
X58875Y8300D01*
X58475Y7900D01*
X58075D01*
X58475Y7500D01*
X58075Y7100D01*
X58475D01*
X58875Y6700D01*
X78875D02*
X79275Y7100D01*
X79675D01*
X79275Y7500D01*
X79675Y7900D01*
X79275D01*
X78875Y8300D01*
X78475Y7900D01*
X78075D01*
X78475Y7500D01*
X78075Y7100D01*
X78475D01*
X78875Y6700D01*
X68875Y19200D02*
X69275Y19600D01*
X69675D01*
X69275Y20000D01*
X69675Y20400D01*
X69275D01*
X68875Y20800D01*
X68475Y20400D01*
X68075D01*
X68475Y20000D01*
X68075Y19600D01*
X68475D01*
X68875Y19200D01*
X58875D02*
X59275Y19600D01*
X59675D01*
X59275Y20000D01*
X59675Y20400D01*
X59275D01*
X58875Y20800D01*
X58475Y20400D01*
X58075D01*
X58475Y20000D01*
X58075Y19600D01*
X58475D01*
X58875Y19200D01*
X78875D02*
X79275Y19600D01*
X79675D01*
X79275Y20000D01*
X79675Y20400D01*
X79275D01*
X78875Y20800D01*
X78475Y20400D01*
X78075D01*
X78475Y20000D01*
X78075Y19600D01*
X78475D01*
X78875Y19200D01*
X69000Y32200D02*
X69400Y32600D01*
X69800D01*
X69400Y33000D01*
X69800Y33400D01*
X69400D01*
X69000Y33800D01*
X68600Y33400D01*
X68200D01*
X68600Y33000D01*
X68200Y32600D01*
X68600D01*
X69000Y32200D01*
X59000D02*
X59400Y32600D01*
X59800D01*
X59400Y33000D01*
X59800Y33400D01*
X59400D01*
X59000Y33800D01*
X58600Y33400D01*
X58200D01*
X58600Y33000D01*
X58200Y32600D01*
X58600D01*
X59000Y32200D01*
X79000D02*
X79400Y32600D01*
X79800D01*
X79400Y33000D01*
X79800Y33400D01*
X79400D01*
X79000Y33800D01*
X78600Y33400D01*
X78200D01*
X78600Y33000D01*
X78200Y32600D01*
X78600D01*
X79000Y32200D01*
X34000D02*
X34400Y32600D01*
X34800D01*
X34400Y33000D01*
X34800Y33400D01*
X34400D01*
X34000Y33800D01*
X33600Y33400D01*
X33200D01*
X33600Y33000D01*
X33200Y32600D01*
X33600D01*
X34000Y32200D01*
X24000D02*
X24400Y32600D01*
X24800D01*
X24400Y33000D01*
X24800Y33400D01*
X24400D01*
X24000Y33800D01*
X23600Y33400D01*
X23200D01*
X23600Y33000D01*
X23200Y32600D01*
X23600D01*
X24000Y32200D01*
X44000D02*
X44400Y32600D01*
X44800D01*
X44400Y33000D01*
X44800Y33400D01*
X44400D01*
X44000Y33800D01*
X43600Y33400D01*
X43200D01*
X43600Y33000D01*
X43200Y32600D01*
X43600D01*
X44000Y32200D01*
Y19200D02*
X44400Y19600D01*
X44800D01*
X44400Y20000D01*
X44800Y20400D01*
X44400D01*
X44000Y20800D01*
X43600Y20400D01*
X43200D01*
X43600Y20000D01*
X43200Y19600D01*
X43600D01*
X44000Y19200D01*
X24000D02*
X24400Y19600D01*
X24800D01*
X24400Y20000D01*
X24800Y20400D01*
X24400D01*
X24000Y20800D01*
X23600Y20400D01*
X23200D01*
X23600Y20000D01*
X23200Y19600D01*
X23600D01*
X24000Y19200D01*
X34000D02*
X34400Y19600D01*
X34800D01*
X34400Y20000D01*
X34800Y20400D01*
X34400D01*
X34000Y20800D01*
X33600Y20400D01*
X33200D01*
X33600Y20000D01*
X33200Y19600D01*
X33600D01*
X34000Y19200D01*
Y6700D02*
X34400Y7100D01*
X34800D01*
X34400Y7500D01*
X34800Y7900D01*
X34400D01*
X34000Y8300D01*
X33600Y7900D01*
X33200D01*
X33600Y7500D01*
X33200Y7100D01*
X33600D01*
X34000Y6700D01*
X24000D02*
X24400Y7100D01*
X24800D01*
X24400Y7500D01*
X24800Y7900D01*
X24400D01*
X24000Y8300D01*
X23600Y7900D01*
X23200D01*
X23600Y7500D01*
X23200Y7100D01*
X23600D01*
X24000Y6700D01*
X44000D02*
X44400Y7100D01*
X44800D01*
X44400Y7500D01*
X44800Y7900D01*
X44400D01*
X44000Y8300D01*
X43600Y7900D01*
X43200D01*
X43600Y7500D01*
X43200Y7100D01*
X43600D01*
X44000Y6700D01*
X215700Y84700D02*
Y86300D01*
X217300D01*
Y84700D01*
X215700D01*
Y94542D02*
Y96143D01*
X217300D01*
Y94542D01*
X215700D01*
Y102417D02*
Y104016D01*
X217300D01*
Y102417D01*
X215700D01*
Y112259D02*
Y113859D01*
X217300D01*
Y112259D01*
X215700D01*
X219700Y142700D02*
X220100D01*
X220500Y143100D01*
X220900Y142700D01*
X221300D01*
Y143100D01*
X220900Y143500D01*
X221300Y143900D01*
Y144300D01*
X220900D01*
X220500Y143900D01*
X220100Y144300D01*
X219700D01*
Y143900D01*
X220100Y143500D01*
X219700Y143100D01*
Y142700D01*
X195000Y138200D02*
X195400Y138600D01*
X195800D01*
X195400Y139000D01*
X195800Y139400D01*
X195400D01*
X195000Y139800D01*
X194600Y139400D01*
X194200D01*
X194600Y139000D01*
X194200Y138600D01*
X194600D01*
X195000Y138200D01*
Y148200D02*
X195400Y148600D01*
X195800D01*
X195400Y149000D01*
X195800Y149400D01*
X195400D01*
X195000Y149800D01*
X194600Y149400D01*
X194200D01*
X194600Y149000D01*
X194200Y148600D01*
X194600D01*
X195000Y148200D01*
Y128200D02*
X195400Y128600D01*
X195800D01*
X195400Y129000D01*
X195800Y129400D01*
X195400D01*
X195000Y129800D01*
X194600Y129400D01*
X194200D01*
X194600Y129000D01*
X194200Y128600D01*
X194600D01*
X195000Y128200D01*
X137750Y121700D02*
X138150Y122100D01*
X138550D01*
X138150Y122500D01*
X138550Y122900D01*
X138150D01*
X137750Y123300D01*
X137350Y122900D01*
X136950D01*
X137350Y122500D01*
X136950Y122100D01*
X137350D01*
X137750Y121700D01*
X127750D02*
X128150Y122100D01*
X128550D01*
X128150Y122500D01*
X128550Y122900D01*
X128150D01*
X127750Y123300D01*
X127350Y122900D01*
X126950D01*
X127350Y122500D01*
X126950Y122100D01*
X127350D01*
X127750Y121700D01*
X147750D02*
X148150Y122100D01*
X148550D01*
X148150Y122500D01*
X148550Y122900D01*
X148150D01*
X147750Y123300D01*
X147350Y122900D01*
X146950D01*
X147350Y122500D01*
X146950Y122100D01*
X147350D01*
X147750Y121700D01*
X137750Y135200D02*
X138150Y135600D01*
X138550D01*
X138150Y136000D01*
X138550Y136400D01*
X138150D01*
X137750Y136800D01*
X137350Y136400D01*
X136950D01*
X137350Y136000D01*
X136950Y135600D01*
X137350D01*
X137750Y135200D01*
X127750D02*
X128150Y135600D01*
X128550D01*
X128150Y136000D01*
X128550Y136400D01*
X128150D01*
X127750Y136800D01*
X127350Y136400D01*
X126950D01*
X127350Y136000D01*
X126950Y135600D01*
X127350D01*
X127750Y135200D01*
X147750D02*
X148150Y135600D01*
X148550D01*
X148150Y136000D01*
X148550Y136400D01*
X148150D01*
X147750Y136800D01*
X147350Y136400D01*
X146950D01*
X147350Y136000D01*
X146950Y135600D01*
X147350D01*
X147750Y135200D01*
X137875Y148200D02*
X138275Y148600D01*
X138675D01*
X138275Y149000D01*
X138675Y149400D01*
X138275D01*
X137875Y149800D01*
X137475Y149400D01*
X137075D01*
X137475Y149000D01*
X137075Y148600D01*
X137475D01*
X137875Y148200D01*
X127875D02*
X128275Y148600D01*
X128675D01*
X128275Y149000D01*
X128675Y149400D01*
X128275D01*
X127875Y149800D01*
X127475Y149400D01*
X127075D01*
X127475Y149000D01*
X127075Y148600D01*
X127475D01*
X127875Y148200D01*
X147875D02*
X148275Y148600D01*
X148675D01*
X148275Y149000D01*
X148675Y149400D01*
X148275D01*
X147875Y149800D01*
X147475Y149400D01*
X147075D01*
X147475Y149000D01*
X147075Y148600D01*
X147475D01*
X147875Y148200D01*
X103000Y121700D02*
X103400Y122100D01*
X103800D01*
X103400Y122500D01*
X103800Y122900D01*
X103400D01*
X103000Y123300D01*
X102600Y122900D01*
X102200D01*
X102600Y122500D01*
X102200Y122100D01*
X102600D01*
X103000Y121700D01*
X93000D02*
X93400Y122100D01*
X93800D01*
X93400Y122500D01*
X93800Y122900D01*
X93400D01*
X93000Y123300D01*
X92600Y122900D01*
X92200D01*
X92600Y122500D01*
X92200Y122100D01*
X92600D01*
X93000Y121700D01*
X113000D02*
X113400Y122100D01*
X113800D01*
X113400Y122500D01*
X113800Y122900D01*
X113400D01*
X113000Y123300D01*
X112600Y122900D01*
X112200D01*
X112600Y122500D01*
X112200Y122100D01*
X112600D01*
X113000Y121700D01*
X103000Y135200D02*
X103400Y135600D01*
X103800D01*
X103400Y136000D01*
X103800Y136400D01*
X103400D01*
X103000Y136800D01*
X102600Y136400D01*
X102200D01*
X102600Y136000D01*
X102200Y135600D01*
X102600D01*
X103000Y135200D01*
X93000D02*
X93400Y135600D01*
X93800D01*
X93400Y136000D01*
X93800Y136400D01*
X93400D01*
X93000Y136800D01*
X92600Y136400D01*
X92200D01*
X92600Y136000D01*
X92200Y135600D01*
X92600D01*
X93000Y135200D01*
X113000D02*
X113400Y135600D01*
X113800D01*
X113400Y136000D01*
X113800Y136400D01*
X113400D01*
X113000Y136800D01*
X112600Y136400D01*
X112200D01*
X112600Y136000D01*
X112200Y135600D01*
X112600D01*
X113000Y135200D01*
X103250Y148200D02*
X103650Y148600D01*
X104050D01*
X103650Y149000D01*
X104050Y149400D01*
X103650D01*
X103250Y149800D01*
X102850Y149400D01*
X102450D01*
X102850Y149000D01*
X102450Y148600D01*
X102850D01*
X103250Y148200D01*
X93250D02*
X93650Y148600D01*
X94050D01*
X93650Y149000D01*
X94050Y149400D01*
X93650D01*
X93250Y149800D01*
X92850Y149400D01*
X92450D01*
X92850Y149000D01*
X92450Y148600D01*
X92850D01*
X93250Y148200D01*
X113250D02*
X113650Y148600D01*
X114050D01*
X113650Y149000D01*
X114050Y149400D01*
X113650D01*
X113250Y149800D01*
X112850Y149400D01*
X112450D01*
X112850Y149000D01*
X112450Y148600D01*
X112850D01*
X113250Y148200D01*
X68625D02*
X69025Y148600D01*
X69425D01*
X69025Y149000D01*
X69425Y149400D01*
X69025D01*
X68625Y149800D01*
X68225Y149400D01*
X67825D01*
X68225Y149000D01*
X67825Y148600D01*
X68225D01*
X68625Y148200D01*
X58625D02*
X59025Y148600D01*
X59425D01*
X59025Y149000D01*
X59425Y149400D01*
X59025D01*
X58625Y149800D01*
X58225Y149400D01*
X57825D01*
X58225Y149000D01*
X57825Y148600D01*
X58225D01*
X58625Y148200D01*
X78625D02*
X79025Y148600D01*
X79425D01*
X79025Y149000D01*
X79425Y149400D01*
X79025D01*
X78625Y149800D01*
X78225Y149400D01*
X77825D01*
X78225Y149000D01*
X77825Y148600D01*
X78225D01*
X78625Y148200D01*
X68250Y135200D02*
X68650Y135600D01*
X69050D01*
X68650Y136000D01*
X69050Y136400D01*
X68650D01*
X68250Y136800D01*
X67850Y136400D01*
X67450D01*
X67850Y136000D01*
X67450Y135600D01*
X67850D01*
X68250Y135200D01*
X58250D02*
X58650Y135600D01*
X59050D01*
X58650Y136000D01*
X59050Y136400D01*
X58650D01*
X58250Y136800D01*
X57850Y136400D01*
X57450D01*
X57850Y136000D01*
X57450Y135600D01*
X57850D01*
X58250Y135200D01*
X78250D02*
X78650Y135600D01*
X79050D01*
X78650Y136000D01*
X79050Y136400D01*
X78650D01*
X78250Y136800D01*
X77850Y136400D01*
X77450D01*
X77850Y136000D01*
X77450Y135600D01*
X77850D01*
X78250Y135200D01*
X68250Y121700D02*
X68650Y122100D01*
X69050D01*
X68650Y122500D01*
X69050Y122900D01*
X68650D01*
X68250Y123300D01*
X67850Y122900D01*
X67450D01*
X67850Y122500D01*
X67450Y122100D01*
X67850D01*
X68250Y121700D01*
X58250D02*
X58650Y122100D01*
X59050D01*
X58650Y122500D01*
X59050Y122900D01*
X58650D01*
X58250Y123300D01*
X57850Y122900D01*
X57450D01*
X57850Y122500D01*
X57450Y122100D01*
X57850D01*
X58250Y121700D01*
X78250D02*
X78650Y122100D01*
X79050D01*
X78650Y122500D01*
X79050Y122900D01*
X78650D01*
X78250Y123300D01*
X77850Y122900D01*
X77450D01*
X77850Y122500D01*
X77450Y122100D01*
X77850D01*
X78250Y121700D01*
X33500D02*
X33900Y122100D01*
X34300D01*
X33900Y122500D01*
X34300Y122900D01*
X33900D01*
X33500Y123300D01*
X33100Y122900D01*
X32700D01*
X33100Y122500D01*
X32700Y122100D01*
X33100D01*
X33500Y121700D01*
X23500D02*
X23900Y122100D01*
X24300D01*
X23900Y122500D01*
X24300Y122900D01*
X23900D01*
X23500Y123300D01*
X23100Y122900D01*
X22700D01*
X23100Y122500D01*
X22700Y122100D01*
X23100D01*
X23500Y121700D01*
X43500D02*
X43900Y122100D01*
X44300D01*
X43900Y122500D01*
X44300Y122900D01*
X43900D01*
X43500Y123300D01*
X43100Y122900D01*
X42700D01*
X43100Y122500D01*
X42700Y122100D01*
X43100D01*
X43500Y121700D01*
X33500Y135200D02*
X33900Y135600D01*
X34300D01*
X33900Y136000D01*
X34300Y136400D01*
X33900D01*
X33500Y136800D01*
X33100Y136400D01*
X32700D01*
X33100Y136000D01*
X32700Y135600D01*
X33100D01*
X33500Y135200D01*
X23500D02*
X23900Y135600D01*
X24300D01*
X23900Y136000D01*
X24300Y136400D01*
X23900D01*
X23500Y136800D01*
X23100Y136400D01*
X22700D01*
X23100Y136000D01*
X22700Y135600D01*
X23100D01*
X23500Y135200D01*
X43500D02*
X43900Y135600D01*
X44300D01*
X43900Y136000D01*
X44300Y136400D01*
X43900D01*
X43500Y136800D01*
X43100Y136400D01*
X42700D01*
X43100Y136000D01*
X42700Y135600D01*
X43100D01*
X43500Y135200D01*
X34000Y148200D02*
X34400Y148600D01*
X34800D01*
X34400Y149000D01*
X34800Y149400D01*
X34400D01*
X34000Y149800D01*
X33600Y149400D01*
X33200D01*
X33600Y149000D01*
X33200Y148600D01*
X33600D01*
X34000Y148200D01*
X24000D02*
X24400Y148600D01*
X24800D01*
X24400Y149000D01*
X24800Y149400D01*
X24400D01*
X24000Y149800D01*
X23600Y149400D01*
X23200D01*
X23600Y149000D01*
X23200Y148600D01*
X23600D01*
X24000Y148200D01*
X44000D02*
X44400Y148600D01*
X44800D01*
X44400Y149000D01*
X44800Y149400D01*
X44400D01*
X44000Y149800D01*
X43600Y149400D01*
X43200D01*
X43600Y149000D01*
X43200Y148600D01*
X43600D01*
X44000Y148200D01*
X182500D02*
X182900Y148600D01*
X183300D01*
X182900Y149000D01*
X183300Y149400D01*
X182900D01*
X182500Y149800D01*
X182100Y149400D01*
X181700D01*
X182100Y149000D01*
X181700Y148600D01*
X182100D01*
X182500Y148200D01*
X162500D02*
X162900Y148600D01*
X163300D01*
X162900Y149000D01*
X163300Y149400D01*
X162900D01*
X162500Y149800D01*
X162100Y149400D01*
X161700D01*
X162100Y149000D01*
X161700Y148600D01*
X162100D01*
X162500Y148200D01*
X172500D02*
X172900Y148600D01*
X173300D01*
X172900Y149000D01*
X173300Y149400D01*
X172900D01*
X172500Y149800D01*
X172100Y149400D01*
X171700D01*
X172100Y149000D01*
X171700Y148600D01*
X172100D01*
X172500Y148200D01*
X182500Y135200D02*
X182900Y135600D01*
X183300D01*
X182900Y136000D01*
X183300Y136400D01*
X182900D01*
X182500Y136800D01*
X182100Y136400D01*
X181700D01*
X182100Y136000D01*
X181700Y135600D01*
X182100D01*
X182500Y135200D01*
X162500D02*
X162900Y135600D01*
X163300D01*
X162900Y136000D01*
X163300Y136400D01*
X162900D01*
X162500Y136800D01*
X162100Y136400D01*
X161700D01*
X162100Y136000D01*
X161700Y135600D01*
X162100D01*
X162500Y135200D01*
X172500D02*
X172900Y135600D01*
X173300D01*
X172900Y136000D01*
X173300Y136400D01*
X172900D01*
X172500Y136800D01*
X172100Y136400D01*
X171700D01*
X172100Y136000D01*
X171700Y135600D01*
X172100D01*
X172500Y135200D01*
X182500Y121700D02*
X182900Y122100D01*
X183300D01*
X182900Y122500D01*
X183300Y122900D01*
X182900D01*
X182500Y123300D01*
X182100Y122900D01*
X181700D01*
X182100Y122500D01*
X181700Y122100D01*
X182100D01*
X182500Y121700D01*
X162500D02*
X162900Y122100D01*
X163300D01*
X162900Y122500D01*
X163300Y122900D01*
X162900D01*
X162500Y123300D01*
X162100Y122900D01*
X161700D01*
X162100Y122500D01*
X161700Y122100D01*
X162100D01*
X162500Y121700D01*
X172500D02*
X172900Y122100D01*
X173300D01*
X172900Y122500D01*
X173300Y122900D01*
X172900D01*
X172500Y123300D01*
X172100Y122900D01*
X171700D01*
X172100Y122500D01*
X171700Y122100D01*
X172100D01*
X172500Y121700D01*
X82200Y47500D02*
X83000Y48300D01*
X83800Y47500D01*
X83000Y46700D01*
X82200Y47500D01*
X41700Y41500D02*
X42500Y42300D01*
X43300Y41500D01*
X42500Y40700D01*
X41700Y41500D01*
X85700Y14000D02*
X86500Y14800D01*
X87300Y14000D01*
X86500Y13200D01*
X85700Y14000D01*
Y17736D02*
X86500Y18536D01*
X87300Y17736D01*
X86500Y16936D01*
X85700Y17736D01*
Y20817D02*
X86500Y21617D01*
X87300Y20817D01*
X86500Y20017D01*
X85700Y20817D01*
X36200Y40500D02*
X37000Y41300D01*
X37800Y40500D01*
X37000Y39700D01*
X36200Y40500D01*
X31200Y41000D02*
X32000Y41800D01*
X32800Y41000D01*
X32000Y40200D01*
X31200Y41000D01*
X39685Y7985D02*
X40485Y8785D01*
X41285Y7985D01*
X40485Y7185D01*
X39685Y7985D01*
X46312Y43874D02*
X47112Y44674D01*
X47912Y43874D01*
X47112Y43074D01*
X46312Y43874D01*
X53707Y44431D02*
X54507Y45231D01*
X55307Y44431D01*
X54507Y43631D01*
X53707Y44431D01*
X46200Y53941D02*
X47000Y54741D01*
X47800Y53941D01*
X47000Y53141D01*
X46200Y53941D01*
X6066Y60599D02*
X6866Y61399D01*
X7666Y60599D01*
X6866Y59799D01*
X6066Y60599D01*
X3516Y56000D02*
X4316Y56800D01*
X5116Y56000D01*
X4316Y55200D01*
X3516Y56000D01*
X45700Y101756D02*
X46500Y102556D01*
X47300Y101756D01*
X46500Y100956D01*
X45700Y101756D01*
X30200Y101500D02*
X31000Y102300D01*
X31800Y101500D01*
X31000Y100700D01*
X30200Y101500D01*
X15700Y97062D02*
X16500Y97862D01*
X17300Y97062D01*
X16500Y96262D01*
X15700Y97062D01*
X29027Y95673D02*
X29827Y96473D01*
X30627Y95673D01*
X29827Y94873D01*
X29027Y95673D01*
X42528Y73805D02*
X43328Y74605D01*
X44128Y73805D01*
X43328Y73005D01*
X42528Y73805D01*
X126119Y62581D02*
X126919Y63381D01*
X127719Y62581D01*
X126919Y61781D01*
X126119Y62581D01*
X134700Y76000D02*
X135500Y76800D01*
X136300Y76000D01*
X135500Y75200D01*
X134700Y76000D01*
X161700Y67154D02*
X162500Y67953D01*
X163300Y67154D01*
X162500Y66353D01*
X161700Y67154D01*
X188200Y47000D02*
X189000Y47800D01*
X189800Y47000D01*
X189000Y46200D01*
X188200Y47000D01*
X161700Y83000D02*
X162500Y83800D01*
X163300Y83000D01*
X162500Y82200D01*
X161700Y83000D01*
X127893Y54000D02*
X128693Y54800D01*
X129493Y54000D01*
X128693Y53200D01*
X127893Y54000D01*
X128393Y96500D02*
X129193Y97300D01*
X129993Y96500D01*
X129193Y95700D01*
X128393Y96500D01*
X146700Y93500D02*
X147500Y94300D01*
X148300Y93500D01*
X147500Y92700D01*
X146700Y93500D01*
X135200Y89000D02*
X136000Y89800D01*
X136800Y89000D01*
X136000Y88200D01*
X135200Y89000D01*
X88200Y78000D02*
X89000Y78800D01*
X89800Y78000D01*
X89000Y77200D01*
X88200Y78000D01*
X91392Y64406D02*
X92192Y65206D01*
X92992Y64406D01*
X92192Y63605D01*
X91392Y64406D01*
X91700Y57500D02*
X92500Y58300D01*
X93300Y57500D01*
X92500Y56700D01*
X91700Y57500D01*
X36200Y55642D02*
X37000Y56442D01*
X37800Y55642D01*
X37000Y54842D01*
X36200Y55642D01*
X30377Y73114D02*
X31177Y73914D01*
X31977Y73114D01*
X31177Y72314D01*
X30377Y73114D01*
X5200Y82000D02*
X6000Y82800D01*
X6800Y82000D01*
X6000Y81200D01*
X5200Y82000D01*
X31657Y82386D02*
X32457Y83186D01*
X33257Y82386D01*
X32457Y81586D01*
X31657Y82386D01*
X127200Y79500D02*
X128000Y80300D01*
X128800Y79500D01*
X128000Y78700D01*
X127200Y79500D01*
X105700Y96500D02*
X106500Y97300D01*
X107300Y96500D01*
X106500Y95700D01*
X105700Y96500D01*
X65200Y116000D02*
X66000Y116800D01*
X66800Y116000D01*
X66000Y115200D01*
X65200Y116000D01*
X30118Y132318D02*
X30918Y133118D01*
X31718Y132318D01*
X30918Y131518D01*
X30118Y132318D01*
X26883Y132500D02*
X27683Y133300D01*
X28483Y132500D01*
X27683Y131700D01*
X26883Y132500D01*
X74200Y140000D02*
X75000Y140800D01*
X75800Y140000D01*
X75000Y139200D01*
X74200Y140000D01*
X72700Y135000D02*
X73500Y135800D01*
X74300Y135000D01*
X73500Y134200D01*
X72700Y135000D01*
X50200Y115500D02*
X51000Y116300D01*
X51800Y115500D01*
X51000Y114700D01*
X50200Y115500D01*
X47699Y81305D02*
X48499Y82105D01*
X49299Y81305D01*
X48499Y80505D01*
X47699Y81305D01*
X50200Y101000D02*
X51000Y101800D01*
X51800Y101000D01*
X51000Y100200D01*
X50200Y101000D01*
X45925Y96469D02*
X46725Y97269D01*
X47525Y96469D01*
X46725Y95670D01*
X45925Y96469D01*
X47578Y88878D02*
X48378Y89678D01*
X49178Y88878D01*
X48378Y88078D01*
X47578Y88878D01*
X224200Y51500D02*
X225000Y52300D01*
X225800Y51500D01*
X225000Y50700D01*
X224200Y51500D01*
X215700Y53000D02*
X216500Y53800D01*
X217300Y53000D01*
X216500Y52200D01*
X215700Y53000D01*
X202200Y42756D02*
X203000Y43556D01*
X203800Y42756D01*
X203000Y41956D01*
X202200Y42756D01*
X18200Y95000D02*
X19000Y95800D01*
X19800Y95000D01*
X19000Y94200D01*
X18200Y95000D01*
X12200Y98500D02*
X13000Y99300D01*
X13800Y98500D01*
X13000Y97700D01*
X12200Y98500D01*
X57700Y73500D02*
X58500Y74300D01*
X59300Y73500D01*
X58500Y72700D01*
X57700Y73500D01*
X54200Y71500D02*
X55000Y72300D01*
X55800Y71500D01*
X55000Y70700D01*
X54200Y71500D01*
X76161Y77994D02*
X76961Y78794D01*
X77761Y77994D01*
X76961Y77194D01*
X76161Y77994D01*
X47700Y73000D02*
X48500Y73800D01*
X49300Y73000D01*
X48500Y72200D01*
X47700Y73000D01*
X196082Y75114D02*
X196882Y75914D01*
X197682Y75114D01*
X196882Y74314D01*
X196082Y75114D01*
X160700Y102000D02*
X161500Y102800D01*
X162300Y102000D01*
X161500Y101200D01*
X160700Y102000D01*
X169700Y102144D02*
X170500Y102944D01*
X171300Y102144D01*
X170500Y101344D01*
X169700Y102144D01*
X168700Y107000D02*
X169500Y107800D01*
X170300Y107000D01*
X169500Y106200D01*
X168700Y107000D01*
X195845Y93145D02*
X196645Y93945D01*
X197445Y93145D01*
X196645Y92345D01*
X195845Y93145D01*
X123320Y96481D02*
X124120Y97281D01*
X124920Y96481D01*
X124120Y95681D01*
X123320Y96481D01*
X130086Y108788D02*
X130886Y109588D01*
X131686Y108788D01*
X130886Y107988D01*
X130086Y108788D01*
X61700Y111500D02*
X62500Y112300D01*
X63300Y111500D01*
X62500Y110700D01*
X61700Y111500D01*
X92700Y52500D02*
X93500Y53300D01*
X94300Y52500D01*
X93500Y51700D01*
X92700Y52500D01*
X97406Y44543D02*
X98206Y45343D01*
X99006Y44543D01*
X98206Y43743D01*
X97406Y44543D01*
X14700Y56000D02*
X15500Y56800D01*
X16300Y56000D01*
X15500Y55200D01*
X14700Y56000D01*
X57565Y66670D02*
X58365Y67470D01*
X59165Y66670D01*
X58365Y65870D01*
X57565Y66670D01*
X26700Y56500D02*
X27500Y57300D01*
X28300Y56500D01*
X27500Y55700D01*
X26700Y56500D01*
X92700Y49000D02*
X93500Y49800D01*
X94300Y49000D01*
X93500Y48200D01*
X92700Y49000D01*
X31200Y58500D02*
X32000Y59300D01*
X32800Y58500D01*
X32000Y57700D01*
X31200Y58500D01*
X49700Y59500D02*
X50500Y60300D01*
X51300Y59500D01*
X50500Y58700D01*
X49700Y59500D01*
X36700Y66000D02*
X37500Y66800D01*
X38300Y66000D01*
X37500Y65200D01*
X36700Y66000D01*
X34216Y68971D02*
X35016Y69771D01*
X35816Y68971D01*
X35016Y68171D01*
X34216Y68971D01*
X39410Y67836D02*
X40210Y68636D01*
X41010Y67836D01*
X40210Y67036D01*
X39410Y67836D01*
X60200Y58590D02*
X61000Y59390D01*
X61800Y58590D01*
X61000Y57790D01*
X60200Y58590D01*
X60700Y66741D02*
X61500Y67541D01*
X62300Y66741D01*
X61500Y65941D01*
X60700Y66741D01*
X76200D02*
X77000Y67541D01*
X77800Y66741D01*
X77000Y65941D01*
X76200Y66741D01*
X199200Y70500D02*
X200000Y71300D01*
X200800Y70500D01*
X200000Y69700D01*
X199200Y70500D01*
X180566Y79812D02*
X181366Y80612D01*
X182166Y79812D01*
X181366Y79012D01*
X180566Y79812D01*
X222200Y44500D02*
X223000Y45300D01*
X223800Y44500D01*
X223000Y43700D01*
X222200Y44500D01*
X94729Y46465D02*
X95529Y47265D01*
X96329Y46465D01*
X95529Y45665D01*
X94729Y46465D01*
X19447Y58106D02*
X20247Y58907D01*
X21047Y58106D01*
X20247Y57306D01*
X19447Y58106D01*
X16273Y59261D02*
X17073Y60061D01*
X17873Y59261D01*
X17073Y58461D01*
X16273Y59261D01*
X8700Y56000D02*
X9500Y56800D01*
X10300Y56000D01*
X9500Y55200D01*
X8700Y56000D01*
X9279Y6269D02*
X10079Y7069D01*
X10879Y6269D01*
X10079Y5469D01*
X9279Y6269D01*
X8645Y65984D02*
X9445Y66784D01*
X10245Y65984D01*
X9445Y65184D01*
X8645Y65984D01*
X11184Y63911D02*
X11984Y64711D01*
X12784Y63911D01*
X11984Y63111D01*
X11184Y63911D01*
X6066Y68019D02*
X6866Y68819D01*
X7666Y68019D01*
X6866Y67219D01*
X6066Y68019D01*
X13743Y61824D02*
X14543Y62624D01*
X15343Y61824D01*
X14543Y61024D01*
X13743Y61824D01*
X39200Y20000D02*
X40000Y20800D01*
X40800Y20000D01*
X40000Y19200D01*
X39200Y20000D01*
X74118Y32620D02*
X74918Y33420D01*
X75718Y32620D01*
X74918Y31820D01*
X74118Y32620D01*
X73722Y20084D02*
X74522Y20884D01*
X75322Y20084D01*
X74522Y19284D01*
X73722Y20084D01*
X74200Y7501D02*
X75000Y8301D01*
X75800Y7501D01*
X75000Y6701D01*
X74200Y7501D01*
X39200Y33000D02*
X40000Y33800D01*
X40800Y33000D01*
X40000Y32200D01*
X39200Y33000D01*
X9121Y150231D02*
X9921Y151031D01*
X10721Y150231D01*
X9921Y149431D01*
X9121Y150231D01*
X47700Y66307D02*
X48500Y67107D01*
X49300Y66307D01*
X48500Y65507D01*
X47700Y66307D01*
X166201Y79072D02*
X167001Y79872D01*
X167801Y79072D01*
X167001Y78272D01*
X166201Y79072D01*
X165200Y63000D02*
X166000Y63800D01*
X166800Y63000D01*
X166000Y62200D01*
X165200Y63000D01*
X161700Y89693D02*
X162500Y90493D01*
X163300Y89693D01*
X162500Y88893D01*
X161700Y89693D01*
X150200Y58000D02*
X151000Y58800D01*
X151800Y58000D01*
X151000Y57200D01*
X150200Y58000D01*
X180232Y63746D02*
X181032Y64546D01*
X181832Y63746D01*
X181032Y62946D01*
X180232Y63746D01*
X173200Y64000D02*
X174000Y64800D01*
X174800Y64000D01*
X174000Y63200D01*
X173200Y64000D01*
X161700Y51307D02*
X162500Y52107D01*
X163300Y51307D01*
X162500Y50507D01*
X161700Y51307D01*
Y58000D02*
X162500Y58800D01*
X163300Y58000D01*
X162500Y57200D01*
X161700Y58000D01*
X154200Y73693D02*
X155000Y74493D01*
X155800Y73693D01*
X155000Y72893D01*
X154200Y73693D01*
X161700Y73847D02*
X162500Y74647D01*
X163300Y73847D01*
X162500Y73046D01*
X161700Y73847D01*
X208700Y99000D02*
X209500Y99800D01*
X210300Y99000D01*
X209500Y98200D01*
X208700Y99000D01*
X223487Y48331D02*
X224287Y49131D01*
X225087Y48331D01*
X224287Y47531D01*
X223487Y48331D01*
X225200Y43000D02*
X226000Y43800D01*
X226800Y43000D01*
X226000Y42200D01*
X225200Y43000D01*
D12*
X227969Y73413D02*
G03*
X227969Y73413I-800J0D01*
G01*
Y125146D02*
G03*
X227969Y125146I-800J0D01*
G01*
M02*
