G04*
G04 #@! TF.GenerationSoftware,Altium Limited,Altium Designer,22.5.1 (42)*
G04*
G04 Layer_Color=65535*
%FSLAX25Y25*%
%MOIN*%
G70*
G04*
G04 #@! TF.SameCoordinates,6DAD0714-FCB9-4B36-A7BF-7B223F3C5BEE*
G04*
G04*
G04 #@! TF.FilePolarity,Positive*
G04*
G01*
G75*
%ADD10C,0.01000*%
%ADD11C,0.00787*%
%ADD12C,0.00600*%
%ADD13C,0.00500*%
%ADD14C,0.00400*%
D10*
X0Y7874D02*
G03*
X7874Y0I7874J0D01*
G01*
Y157500D02*
G03*
X0Y149626I0J-7874D01*
G01*
X236000Y149606D02*
G03*
X228126Y157480I-7874J0D01*
G01*
X228346Y0D02*
G03*
X236221Y7874I0J7874D01*
G01*
X228346Y0D02*
G03*
X236221Y7874I0J7874D01*
G01*
X236000Y149606D02*
G03*
X228126Y157480I-7874J0D01*
G01*
X7874Y157500D02*
G03*
X0Y149626I0J-7874D01*
G01*
Y7874D02*
G03*
X7874Y0I7874J0D01*
G01*
X0Y7874D02*
Y149606D01*
X7874Y157500D02*
X228346D01*
X236221Y7874D02*
Y149606D01*
X7874Y0D02*
X228346D01*
X7874D02*
X228346D01*
X236221Y7874D02*
Y149606D01*
X7874Y157500D02*
X228346D01*
X0Y7874D02*
Y149606D01*
X203501Y3001D02*
X209499D01*
Y6000D01*
X208499Y7000D01*
X207500D01*
X206500Y6000D01*
Y3001D01*
Y6000D01*
X205500Y7000D01*
X204501D01*
X203501Y6000D01*
Y3001D01*
X209499Y8999D02*
Y10999D01*
Y9999D01*
X203501D01*
X204501Y8999D01*
X203501Y143002D02*
X209499D01*
Y146001D01*
X208499Y147000D01*
X207500D01*
X206500Y146001D01*
Y143002D01*
Y146001D01*
X205500Y147000D01*
X204501D01*
X203501Y146001D01*
Y143002D01*
X209499Y152998D02*
Y149000D01*
X205500Y152998D01*
X204501D01*
X203501Y151999D01*
Y149999D01*
X204501Y149000D01*
D11*
X214575Y34500D02*
G03*
X214575Y34500I-394J0D01*
G01*
X203953Y28000D02*
G03*
X203953Y28000I-394J0D01*
G01*
X183894Y25441D02*
G03*
X183894Y25441I-394J0D01*
G01*
Y12441D02*
G03*
X183894Y12441I-394J0D01*
G01*
Y-59D02*
G03*
X183894Y-59I-394J0D01*
G01*
X148894Y25441D02*
G03*
X148894Y25441I-394J0D01*
G01*
X149019Y12441D02*
G03*
X149019Y12441I-394J0D01*
G01*
Y-59D02*
G03*
X149019Y-59I-394J0D01*
G01*
X114394Y25441D02*
G03*
X114394Y25441I-394J0D01*
G01*
Y12441D02*
G03*
X114394Y12441I-394J0D01*
G01*
Y-59D02*
G03*
X114394Y-59I-394J0D01*
G01*
X79269D02*
G03*
X79269Y-59I-394J0D01*
G01*
Y12441D02*
G03*
X79269Y12441I-394J0D01*
G01*
X79394Y25441D02*
G03*
X79394Y25441I-394J0D01*
G01*
X44394D02*
G03*
X44394Y25441I-394J0D01*
G01*
Y12441D02*
G03*
X44394Y12441I-394J0D01*
G01*
Y-59D02*
G03*
X44394Y-59I-394J0D01*
G01*
X122878Y56146D02*
G03*
X122878Y56146I-394J0D01*
G01*
X187835Y129000D02*
G03*
X187835Y129000I-394J0D01*
G01*
X148144Y114941D02*
G03*
X148144Y114941I-394J0D01*
G01*
Y128441D02*
G03*
X148144Y128441I-394J0D01*
G01*
X148269Y141441D02*
G03*
X148269Y141441I-394J0D01*
G01*
X113394Y114941D02*
G03*
X113394Y114941I-394J0D01*
G01*
Y128441D02*
G03*
X113394Y128441I-394J0D01*
G01*
X113644Y141441D02*
G03*
X113644Y141441I-394J0D01*
G01*
X79019D02*
G03*
X79019Y141441I-394J0D01*
G01*
X78644Y128441D02*
G03*
X78644Y128441I-394J0D01*
G01*
Y114941D02*
G03*
X78644Y114941I-394J0D01*
G01*
X43894D02*
G03*
X43894Y114941I-394J0D01*
G01*
Y128441D02*
G03*
X43894Y128441I-394J0D01*
G01*
X44394Y141441D02*
G03*
X44394Y141441I-394J0D01*
G01*
X182894D02*
G03*
X182894Y141441I-394J0D01*
G01*
Y128441D02*
G03*
X182894Y128441I-394J0D01*
G01*
Y114941D02*
G03*
X182894Y114941I-394J0D01*
G01*
X94500Y87500D02*
Y107500D01*
X74500D02*
X94500D01*
X74500Y87500D02*
X94500D01*
X74500D02*
Y107500D01*
X96500Y107000D02*
X116500D01*
Y47000D02*
Y107000D01*
X96500Y47000D02*
X116500D01*
X96500D02*
Y107000D01*
X230874Y36350D02*
Y38555D01*
X218433Y36350D02*
Y38555D01*
Y52098D02*
Y54303D01*
X230874Y52098D02*
Y54303D01*
X206212Y43546D02*
Y57476D01*
X213298Y43546D02*
Y57476D01*
X206212Y43546D02*
X213298D01*
X206212Y57476D02*
X213261D01*
X206212Y26828D02*
Y40758D01*
X213298Y26828D02*
Y40758D01*
X206212Y26828D02*
X213298D01*
X206212Y40758D02*
X213261D01*
X204457Y39606D02*
Y40394D01*
X201504Y39606D02*
Y40394D01*
Y50244D02*
Y51032D01*
X204457Y50244D02*
Y51032D01*
X198457Y45106D02*
Y45894D01*
X195504Y45106D02*
Y45894D01*
X201000Y3000D02*
Y33000D01*
X191000Y3000D02*
Y33000D01*
Y3000D02*
X201000D01*
X191000Y33000D02*
X201000D01*
X158500Y28000D02*
X188500D01*
X158500Y38000D02*
X188500D01*
X158500Y28000D02*
Y38000D01*
X188500Y28000D02*
Y38000D01*
X158500Y15000D02*
X188500D01*
X158500Y25000D02*
X188500D01*
X158500Y15000D02*
Y25000D01*
X188500Y15000D02*
Y25000D01*
X158500Y2500D02*
X188500D01*
X158500Y12500D02*
X188500D01*
X158500Y2500D02*
Y12500D01*
X188500Y2500D02*
Y12500D01*
X123500Y28000D02*
X153500D01*
X123500Y38000D02*
X153500D01*
X123500Y28000D02*
Y38000D01*
X153500Y28000D02*
Y38000D01*
X123625Y15000D02*
X153625D01*
X123625Y25000D02*
X153625D01*
X123625Y15000D02*
Y25000D01*
X153625Y15000D02*
Y25000D01*
X123625Y2500D02*
X153625D01*
X123625Y12500D02*
X153625D01*
X123625Y2500D02*
Y12500D01*
X153625Y2500D02*
Y12500D01*
X89000Y28000D02*
X119000D01*
X89000Y38000D02*
X119000D01*
X89000Y28000D02*
Y38000D01*
X119000Y28000D02*
Y38000D01*
X89000Y15000D02*
X119000D01*
X89000Y25000D02*
X119000D01*
X89000Y15000D02*
Y25000D01*
X119000Y15000D02*
Y25000D01*
X89000Y2500D02*
X119000D01*
X89000Y12500D02*
X119000D01*
X89000Y2500D02*
Y12500D01*
X119000Y2500D02*
Y12500D01*
X53875Y2500D02*
X83875D01*
X53875Y12500D02*
X83875D01*
X53875Y2500D02*
Y12500D01*
X83875Y2500D02*
Y12500D01*
X53875Y15000D02*
X83875D01*
X53875Y25000D02*
X83875D01*
X53875Y15000D02*
Y25000D01*
X83875Y15000D02*
Y25000D01*
X54000Y28000D02*
X84000D01*
X54000Y38000D02*
X84000D01*
X54000Y28000D02*
Y38000D01*
X84000Y28000D02*
Y38000D01*
X19000Y28000D02*
X49000D01*
X19000Y38000D02*
X49000D01*
X19000Y28000D02*
Y38000D01*
X49000Y28000D02*
Y38000D01*
Y15000D02*
Y25000D01*
X19000Y15000D02*
Y25000D01*
X49000D01*
X19000Y15000D02*
X49000D01*
X19000Y2500D02*
X49000D01*
X19000Y12500D02*
X49000D01*
X19000Y2500D02*
Y12500D01*
X49000Y2500D02*
Y12500D01*
X-28213Y45035D02*
Y111965D01*
X66276Y45035D02*
X70213D01*
Y54878D01*
Y102122D02*
Y111965D01*
X66276D02*
X70213D01*
X-28213Y45035D02*
X3283D01*
X-28213Y111965D02*
X3283D01*
X84996Y80356D02*
Y81144D01*
X82043Y80356D02*
Y81144D01*
X75504Y80356D02*
Y81144D01*
X78457Y80356D02*
Y81144D01*
X233075Y73492D02*
X267721D01*
Y125067D01*
X233075D02*
X267721D01*
X212209Y73492D02*
X221264D01*
X212209D02*
Y125067D01*
X221264D01*
X201957Y99496D02*
X202744D01*
X201957Y96543D02*
X202744D01*
X201957Y91004D02*
X202744D01*
X201957Y93957D02*
X202744D01*
X185500Y53973D02*
Y63028D01*
X169752Y53973D02*
Y63028D01*
X179201Y53973D02*
X185500D01*
X169752D02*
X176051D01*
X179201Y63028D02*
X185500D01*
X169752D02*
X176051D01*
X169752Y64629D02*
Y73684D01*
X185500Y64629D02*
Y73684D01*
X169752D02*
X176051D01*
X179201D02*
X185500D01*
X169752Y64629D02*
X176051D01*
X179201D02*
X185500D01*
X169752Y85941D02*
Y94996D01*
X185500Y85941D02*
Y94996D01*
X169752D02*
X176051D01*
X179201D02*
X185500D01*
X169752Y85941D02*
X176051D01*
X179201D02*
X185500D01*
Y75285D02*
Y84340D01*
X169752Y75285D02*
Y84340D01*
X179201Y75285D02*
X185500D01*
X169752D02*
X176051D01*
X179201Y84340D02*
X185500D01*
X169752D02*
X176051D01*
X118350Y50457D02*
X132280D01*
X118350Y57543D02*
X132280D01*
Y50457D02*
Y57543D01*
X118350Y50457D02*
Y57506D01*
X81543Y48658D02*
Y62587D01*
X74457Y48658D02*
Y62587D01*
X81543D01*
X74494Y48658D02*
X81543D01*
X90543Y48850D02*
Y62780D01*
X83457Y48850D02*
Y62780D01*
X90543D01*
X83495Y48850D02*
X90543D01*
X75504Y69106D02*
Y69894D01*
X78457Y69106D02*
Y69894D01*
X82043Y69106D02*
Y69894D01*
X84996Y69106D02*
Y69894D01*
X118850Y92957D02*
X132780D01*
X118850Y100043D02*
X132780D01*
Y92957D02*
Y100043D01*
X118850Y92957D02*
Y100005D01*
X126752Y104941D02*
Y113996D01*
X142500Y104941D02*
Y113996D01*
X126752D02*
X133051D01*
X136201D02*
X142500D01*
X126752Y104941D02*
X133051D01*
X136201D02*
X142500D01*
X149106Y113457D02*
X149894D01*
X149106Y110504D02*
X149894D01*
X161606Y113457D02*
X162394D01*
X161606Y110504D02*
X162394D01*
X190000Y124000D02*
Y154000D01*
X200000Y124000D02*
Y154000D01*
X190000D02*
X200000D01*
X190000Y124000D02*
X200000D01*
X122750Y117500D02*
X152750D01*
X122750Y127500D02*
X152750D01*
X122750Y117500D02*
Y127500D01*
X152750Y117500D02*
Y127500D01*
X122750Y131000D02*
X152750D01*
X122750Y141000D02*
X152750D01*
X122750Y131000D02*
Y141000D01*
X152750Y131000D02*
Y141000D01*
X122875Y144000D02*
X152875D01*
X122875Y154000D02*
X152875D01*
X122875Y144000D02*
Y154000D01*
X152875Y144000D02*
Y154000D01*
X88000Y117500D02*
X118000D01*
X88000Y127500D02*
X118000D01*
X88000Y117500D02*
Y127500D01*
X118000Y117500D02*
Y127500D01*
X88000Y131000D02*
X118000D01*
X88000Y141000D02*
X118000D01*
X88000Y131000D02*
Y141000D01*
X118000Y131000D02*
Y141000D01*
X88250Y144000D02*
X118250D01*
X88250Y154000D02*
X118250D01*
X88250Y144000D02*
Y154000D01*
X118250Y144000D02*
Y154000D01*
X53625Y144000D02*
X83625D01*
X53625Y154000D02*
X83625D01*
X53625Y144000D02*
Y154000D01*
X83625Y144000D02*
Y154000D01*
X53250Y131000D02*
X83250D01*
X53250Y141000D02*
X83250D01*
X53250Y131000D02*
Y141000D01*
X83250Y131000D02*
Y141000D01*
X53250Y117500D02*
X83250D01*
X53250Y127500D02*
X83250D01*
X53250Y117500D02*
Y127500D01*
X83250Y117500D02*
Y127500D01*
X18500Y117500D02*
X48500D01*
X18500Y127500D02*
X48500D01*
X18500Y117500D02*
Y127500D01*
X48500Y117500D02*
Y127500D01*
X18500Y131000D02*
X48500D01*
X18500Y141000D02*
X48500D01*
X18500Y131000D02*
Y141000D01*
X48500Y131000D02*
Y141000D01*
X19000Y144000D02*
X49000D01*
X19000Y154000D02*
X49000D01*
X19000Y144000D02*
Y154000D01*
X49000Y144000D02*
Y154000D01*
X187500Y144000D02*
Y154000D01*
X157500Y144000D02*
Y154000D01*
X187500D01*
X157500Y144000D02*
X187500D01*
Y131000D02*
Y141000D01*
X157500Y131000D02*
Y141000D01*
X187500D01*
X157500Y131000D02*
X187500D01*
Y117500D02*
Y127500D01*
X157500Y117500D02*
Y127500D01*
X187500D01*
X157500Y117500D02*
X187500D01*
D12*
X3500Y10500D02*
Y33000D01*
X16500Y10500D02*
Y33000D01*
X3500Y10500D02*
X5800D01*
X3500Y33000D02*
X5800D01*
X14600Y10500D02*
X16500D01*
X14600Y33000D02*
X16500D01*
X151500Y63500D02*
Y86000D01*
X164500Y63500D02*
Y86000D01*
X151500Y63500D02*
X153800D01*
X151500Y86000D02*
X153800D01*
X162600Y63500D02*
X164500D01*
X162600Y86000D02*
X164500D01*
X16499Y123500D02*
Y146000D01*
X3500Y123500D02*
Y146000D01*
X14199D02*
X16499D01*
X14199Y123500D02*
X16499D01*
X3500Y146000D02*
X5399D01*
X3500Y123500D02*
X5399D01*
D13*
X197095Y110468D02*
X200047D01*
X197095Y108500D02*
Y110468D01*
X205953D02*
X208906D01*
Y108500D02*
Y110468D01*
X202016Y106532D02*
X203984D01*
X205953Y79532D02*
X208906D01*
Y81500D01*
X197095Y79532D02*
X200047D01*
X197095D02*
Y81500D01*
X202016Y83469D02*
X203984D01*
X118695Y68931D02*
Y82730D01*
X144305D01*
Y68931D02*
Y82730D01*
X118695Y68931D02*
X144305D01*
X112500Y110499D02*
Y108500D01*
X110501Y110499D01*
X110001D01*
X109501Y110000D01*
Y109000D01*
X110001Y108500D01*
X102500Y109000D02*
Y110000D01*
Y109500D01*
X99501D01*
X100001Y109000D01*
X103000Y41500D02*
Y42500D01*
Y42000D01*
X100001D01*
X100501Y41500D01*
X103000Y43500D02*
Y44500D01*
Y44000D01*
X100001D01*
X100501Y43500D01*
X113000Y40500D02*
Y41500D01*
Y41000D01*
X110001D01*
X110501Y40500D01*
X113000Y44998D02*
Y42999D01*
X111001Y44998D01*
X110501D01*
X110001Y44499D01*
Y43499D01*
X110501Y42999D01*
D14*
X82084Y109250D02*
Y111750D01*
X83334D01*
X83750Y111333D01*
Y110500D01*
X83334Y110083D01*
X82084D01*
X84583Y111750D02*
Y109250D01*
Y110500D01*
X86250D01*
Y111750D01*
Y109250D01*
X87083D02*
X87916D01*
X87499D01*
Y111750D01*
X87083Y111333D01*
X106000Y113750D02*
X105167D01*
X105584D01*
Y111667D01*
X105167Y111250D01*
X104750D01*
X104334Y111667D01*
X106833Y111250D02*
X107666D01*
X107250D01*
Y113750D01*
X106833Y113333D01*
X211250Y60834D02*
X213333D01*
X213750Y61250D01*
Y62084D01*
X213333Y62500D01*
X211250D01*
X213750Y63333D02*
Y64166D01*
Y63750D01*
X211250D01*
X211667Y63333D01*
X202667Y58083D02*
X202250Y57667D01*
Y56834D01*
X202667Y56417D01*
X204333D01*
X204750Y56834D01*
Y57667D01*
X204333Y58083D01*
X204750Y60166D02*
X202250D01*
X203500Y58916D01*
Y60583D01*
X202667Y30584D02*
X202250Y30167D01*
Y29334D01*
X202667Y28917D01*
X204333D01*
X204750Y29334D01*
Y30167D01*
X204333Y30584D01*
X204750Y33083D02*
Y31416D01*
X203083Y33083D01*
X202667D01*
X202250Y32666D01*
Y31833D01*
X202667Y31416D01*
X198750Y35417D02*
X196250D01*
Y36667D01*
X196667Y37084D01*
X197500D01*
X197916Y36667D01*
Y35417D01*
Y36250D02*
X198750Y37084D01*
Y39583D02*
Y37916D01*
X197083Y39583D01*
X196667D01*
X196250Y39166D01*
Y38333D01*
X196667Y37916D01*
X197250Y52834D02*
X194750D01*
Y54084D01*
X195167Y54500D01*
X196000D01*
X196416Y54084D01*
Y52834D01*
Y53667D02*
X197250Y54500D01*
Y55333D02*
Y56166D01*
Y55750D01*
X194750D01*
X195167Y55333D01*
X193250Y44417D02*
X190750D01*
Y45667D01*
X191167Y46084D01*
X192000D01*
X192417Y45667D01*
Y44417D01*
Y45250D02*
X193250Y46084D01*
X191167Y46916D02*
X190750Y47333D01*
Y48166D01*
X191167Y48583D01*
X191583D01*
X192000Y48166D01*
Y47750D01*
Y48166D01*
X192417Y48583D01*
X192833D01*
X193250Y48166D01*
Y47333D01*
X192833Y46916D01*
X205250Y17168D02*
X202750D01*
Y18417D01*
X203167Y18834D01*
X204000D01*
X204416Y18417D01*
Y17168D01*
X203167Y19667D02*
X202750Y20084D01*
Y20917D01*
X203167Y21333D01*
X203584D01*
X204000Y20917D01*
Y20500D01*
Y20917D01*
X204416Y21333D01*
X204833D01*
X205250Y20917D01*
Y20084D01*
X204833Y19667D01*
X205250Y23832D02*
Y22166D01*
X203584Y23832D01*
X203167D01*
X202750Y23416D01*
Y22583D01*
X203167Y22166D01*
X157250Y30376D02*
X154750D01*
Y31626D01*
X155167Y32042D01*
X156000D01*
X156416Y31626D01*
Y30376D01*
X157250Y32875D02*
Y33708D01*
Y33292D01*
X154750D01*
X155167Y32875D01*
X154750Y36624D02*
X155167Y35791D01*
X156000Y34958D01*
X156833D01*
X157250Y35374D01*
Y36208D01*
X156833Y36624D01*
X156416D01*
X156000Y36208D01*
Y34958D01*
X157250Y16876D02*
X154750D01*
Y18126D01*
X155167Y18542D01*
X156000D01*
X156416Y18126D01*
Y16876D01*
X157250Y19375D02*
Y20208D01*
Y19792D01*
X154750D01*
X155167Y19375D01*
X154750Y21458D02*
Y23124D01*
X155167D01*
X156833Y21458D01*
X157250D01*
Y4876D02*
X154750D01*
Y6126D01*
X155167Y6542D01*
X156000D01*
X156416Y6126D01*
Y4876D01*
X157250Y7375D02*
Y8208D01*
Y7792D01*
X154750D01*
X155167Y7375D01*
Y9458D02*
X154750Y9874D01*
Y10707D01*
X155167Y11124D01*
X155583D01*
X156000Y10707D01*
X156416Y11124D01*
X156833D01*
X157250Y10707D01*
Y9874D01*
X156833Y9458D01*
X156416D01*
X156000Y9874D01*
X155583Y9458D01*
X155167D01*
X156000Y9874D02*
Y10707D01*
X122750Y30376D02*
X120250D01*
Y31626D01*
X120667Y32042D01*
X121500D01*
X121916Y31626D01*
Y30376D01*
X122750Y32875D02*
Y33708D01*
Y33292D01*
X120250D01*
X120667Y32875D01*
X122333Y34958D02*
X122750Y35374D01*
Y36208D01*
X122333Y36624D01*
X120667D01*
X120250Y36208D01*
Y35374D01*
X120667Y34958D01*
X121083D01*
X121500Y35374D01*
Y36624D01*
X122750Y16168D02*
X120250D01*
Y17417D01*
X120667Y17834D01*
X121500D01*
X121916Y17417D01*
Y16168D01*
X122750Y20333D02*
Y18667D01*
X121083Y20333D01*
X120667D01*
X120250Y19917D01*
Y19083D01*
X120667Y18667D01*
Y21166D02*
X120250Y21583D01*
Y22416D01*
X120667Y22832D01*
X122333D01*
X122750Y22416D01*
Y21583D01*
X122333Y21166D01*
X120667D01*
X122750Y4584D02*
X120250D01*
Y5834D01*
X120667Y6250D01*
X121500D01*
X121916Y5834D01*
Y4584D01*
X122750Y8750D02*
Y7084D01*
X121083Y8750D01*
X120667D01*
X120250Y8333D01*
Y7500D01*
X120667Y7084D01*
X122750Y9583D02*
Y10416D01*
Y9999D01*
X120250D01*
X120667Y9583D01*
X87750Y29668D02*
X85250D01*
Y30917D01*
X85667Y31334D01*
X86500D01*
X86917Y30917D01*
Y29668D01*
X87750Y33833D02*
Y32167D01*
X86084Y33833D01*
X85667D01*
X85250Y33417D01*
Y32583D01*
X85667Y32167D01*
X87750Y36332D02*
Y34666D01*
X86084Y36332D01*
X85667D01*
X85250Y35916D01*
Y35083D01*
X85667Y34666D01*
X87750Y16668D02*
X85250D01*
Y17917D01*
X85667Y18334D01*
X86500D01*
X86917Y17917D01*
Y16668D01*
X87750Y20833D02*
Y19167D01*
X86084Y20833D01*
X85667D01*
X85250Y20416D01*
Y19583D01*
X85667Y19167D01*
Y21666D02*
X85250Y22083D01*
Y22916D01*
X85667Y23332D01*
X86084D01*
X86500Y22916D01*
Y22499D01*
Y22916D01*
X86917Y23332D01*
X87333D01*
X87750Y22916D01*
Y22083D01*
X87333Y21666D01*
X87750Y4668D02*
X85250D01*
Y5917D01*
X85667Y6334D01*
X86500D01*
X86917Y5917D01*
Y4668D01*
X87750Y8833D02*
Y7167D01*
X86084Y8833D01*
X85667D01*
X85250Y8416D01*
Y7583D01*
X85667Y7167D01*
X87750Y10916D02*
X85250D01*
X86500Y9666D01*
Y11332D01*
X52750Y4168D02*
X50250D01*
Y5417D01*
X50667Y5834D01*
X51500D01*
X51916Y5417D01*
Y4168D01*
X52750Y8333D02*
Y6667D01*
X51083Y8333D01*
X50667D01*
X50250Y7916D01*
Y7084D01*
X50667Y6667D01*
X50250Y9166D02*
Y10832D01*
X50667D01*
X52333Y9166D01*
X52750D01*
Y16168D02*
X50250D01*
Y17417D01*
X50667Y17834D01*
X51500D01*
X51916Y17417D01*
Y16168D01*
X52750Y20333D02*
Y18667D01*
X51083Y20333D01*
X50667D01*
X50250Y19917D01*
Y19083D01*
X50667Y18667D01*
X50250Y22832D02*
X50667Y21999D01*
X51500Y21166D01*
X52333D01*
X52750Y21583D01*
Y22416D01*
X52333Y22832D01*
X51916D01*
X51500Y22416D01*
Y21166D01*
X52750Y29668D02*
X50250D01*
Y30917D01*
X50667Y31334D01*
X51500D01*
X51916Y30917D01*
Y29668D01*
X52750Y33833D02*
Y32167D01*
X51083Y33833D01*
X50667D01*
X50250Y33417D01*
Y32583D01*
X50667Y32167D01*
X50250Y36332D02*
Y34666D01*
X51500D01*
X51083Y35499D01*
Y35916D01*
X51500Y36332D01*
X52333D01*
X52750Y35916D01*
Y35083D01*
X52333Y34666D01*
X17250Y30668D02*
X14750D01*
Y31917D01*
X15167Y32334D01*
X16000D01*
X16417Y31917D01*
Y30668D01*
X17250Y34833D02*
Y33167D01*
X15584Y34833D01*
X15167D01*
X14750Y34416D01*
Y33584D01*
X15167Y33167D01*
Y35666D02*
X14750Y36083D01*
Y36916D01*
X15167Y37332D01*
X15584D01*
X16000Y36916D01*
X16417Y37332D01*
X16833D01*
X17250Y36916D01*
Y36083D01*
X16833Y35666D01*
X16417D01*
X16000Y36083D01*
X15584Y35666D01*
X15167D01*
X16000Y36083D02*
Y36916D01*
X17750Y17168D02*
X15250D01*
Y18417D01*
X15667Y18834D01*
X16500D01*
X16917Y18417D01*
Y17168D01*
X17750Y21333D02*
Y19667D01*
X16083Y21333D01*
X15667D01*
X15250Y20917D01*
Y20084D01*
X15667Y19667D01*
X17333Y22166D02*
X17750Y22583D01*
Y23416D01*
X17333Y23832D01*
X15667D01*
X15250Y23416D01*
Y22583D01*
X15667Y22166D01*
X16083D01*
X16500Y22583D01*
Y23832D01*
X17750Y4168D02*
X15250D01*
Y5417D01*
X15667Y5834D01*
X16500D01*
X16917Y5417D01*
Y4168D01*
X15667Y6667D02*
X15250Y7084D01*
Y7916D01*
X15667Y8333D01*
X16083D01*
X16500Y7916D01*
Y7500D01*
Y7916D01*
X16917Y8333D01*
X17333D01*
X17750Y7916D01*
Y7084D01*
X17333Y6667D01*
X15667Y9166D02*
X15250Y9583D01*
Y10416D01*
X15667Y10832D01*
X17333D01*
X17750Y10416D01*
Y9583D01*
X17333Y9166D01*
X15667D01*
X2750Y4417D02*
X5250D01*
X4417D01*
X2750Y6084D01*
X4000Y4834D01*
X5250Y6084D01*
Y8583D02*
Y6916D01*
X3583Y8583D01*
X3167D01*
X2750Y8166D01*
Y7333D01*
X3167Y6916D01*
X5750Y116834D02*
X3250D01*
X4084Y117667D01*
X3250Y118500D01*
X5750D01*
Y119333D02*
Y120166D01*
Y119750D01*
X3250D01*
X3667Y119333D01*
X94250Y76293D02*
X91750D01*
Y77542D01*
X92167Y77959D01*
X93000D01*
X93417Y77542D01*
Y76293D01*
Y77126D02*
X94250Y77959D01*
Y78792D02*
Y79625D01*
Y79208D01*
X91750D01*
X92167Y78792D01*
X94250Y80874D02*
Y81708D01*
Y81291D01*
X91750D01*
X92167Y80874D01*
X89750Y76293D02*
X87250D01*
Y77542D01*
X87667Y77959D01*
X88500D01*
X88916Y77542D01*
Y76293D01*
Y77126D02*
X89750Y77959D01*
X87250Y80458D02*
Y78792D01*
X88500D01*
X88083Y79625D01*
Y80041D01*
X88500Y80458D01*
X89333D01*
X89750Y80041D01*
Y79208D01*
X89333Y78792D01*
X147250Y73834D02*
X149750D01*
X148916D01*
X147250Y75500D01*
X148500Y74250D01*
X149750Y75500D01*
Y76333D02*
Y77166D01*
Y76750D01*
X147250D01*
X147667Y76333D01*
X207750Y120335D02*
X209833D01*
X210250Y120751D01*
Y121584D01*
X209833Y122001D01*
X207750D01*
X208167Y124500D02*
X207750Y124083D01*
Y123250D01*
X208167Y122834D01*
X208583D01*
X209000Y123250D01*
Y124083D01*
X209417Y124500D01*
X209833D01*
X210250Y124083D01*
Y123250D01*
X209833Y122834D01*
X207750Y125333D02*
X210250D01*
Y126583D01*
X209833Y126999D01*
X209417D01*
X209000Y126583D01*
Y125333D01*
Y126583D01*
X208583Y126999D01*
X208167D01*
X207750Y126583D01*
Y125333D01*
X210250Y127832D02*
Y128665D01*
Y128249D01*
X207750D01*
X208167Y127832D01*
X209333Y113500D02*
X207667D01*
X207250Y113084D01*
Y112250D01*
X207667Y111834D01*
X209333D01*
X209750Y112250D01*
Y113084D01*
X208916Y112667D02*
X209750Y113500D01*
Y113084D02*
X209333Y113500D01*
X209750Y114333D02*
Y115166D01*
Y114750D01*
X207250D01*
X207667Y114333D01*
X196250Y96417D02*
X193750D01*
Y97667D01*
X194167Y98084D01*
X195000D01*
X195416Y97667D01*
Y96417D01*
Y97250D02*
X196250Y98084D01*
X194167Y98917D02*
X193750Y99333D01*
Y100166D01*
X194167Y100583D01*
X194583D01*
X195000Y100166D01*
X195416Y100583D01*
X195833D01*
X196250Y100166D01*
Y99333D01*
X195833Y98917D01*
X195416D01*
X195000Y99333D01*
X194583Y98917D01*
X194167D01*
X195000Y99333D02*
Y100166D01*
X196250Y90417D02*
X193750D01*
Y91667D01*
X194167Y92084D01*
X195000D01*
X195416Y91667D01*
Y90417D01*
Y91250D02*
X196250Y92084D01*
X195833Y92917D02*
X196250Y93333D01*
Y94166D01*
X195833Y94583D01*
X194167D01*
X193750Y94166D01*
Y93333D01*
X194167Y92917D01*
X194583D01*
X195000Y93333D01*
Y94583D01*
X208333Y76083D02*
X206667D01*
X206250Y75667D01*
Y74834D01*
X206667Y74417D01*
X208333D01*
X208750Y74834D01*
Y75667D01*
X207916Y75250D02*
X208750Y76083D01*
Y75667D02*
X208333Y76083D01*
X208750Y78583D02*
Y76916D01*
X207083Y78583D01*
X206667D01*
X206250Y78166D01*
Y77333D01*
X206667Y76916D01*
X187750Y52918D02*
X190250D01*
Y54584D01*
X187750Y57083D02*
Y55417D01*
X190250D01*
Y57083D01*
X189000Y55417D02*
Y56250D01*
X187750Y57916D02*
X190250D01*
Y59166D01*
X189833Y59583D01*
X188167D01*
X187750Y59166D01*
Y57916D01*
X190250Y62082D02*
Y60416D01*
X188583Y62082D01*
X188167D01*
X187750Y61665D01*
Y60832D01*
X188167Y60416D01*
X187250Y64418D02*
X189750D01*
Y66084D01*
X187250Y68584D02*
Y66917D01*
X189750D01*
Y68584D01*
X188500Y66917D02*
Y67750D01*
X187250Y69416D02*
X189750D01*
Y70666D01*
X189333Y71083D01*
X187667D01*
X187250Y70666D01*
Y69416D01*
X189750Y73165D02*
X187250D01*
X188500Y71916D01*
Y73582D01*
X187250Y87418D02*
X189750D01*
Y89084D01*
X187250Y91584D02*
Y89917D01*
X189750D01*
Y91584D01*
X188500Y89917D02*
Y90750D01*
X187250Y92417D02*
X189750D01*
Y93666D01*
X189333Y94083D01*
X187667D01*
X187250Y93666D01*
Y92417D01*
X187667Y94916D02*
X187250Y95332D01*
Y96165D01*
X187667Y96582D01*
X188084D01*
X188500Y96165D01*
Y95749D01*
Y96165D01*
X188917Y96582D01*
X189333D01*
X189750Y96165D01*
Y95332D01*
X189333Y94916D01*
X187250Y76335D02*
X189750D01*
Y78001D01*
X187250Y80500D02*
Y78834D01*
X189750D01*
Y80500D01*
X188500Y78834D02*
Y79667D01*
X187250Y81333D02*
X189750D01*
Y82583D01*
X189333Y82999D01*
X187667D01*
X187250Y82583D01*
Y81333D01*
X189750Y83832D02*
Y84665D01*
Y84249D01*
X187250D01*
X187667Y83832D01*
X135167Y54000D02*
X134750Y53584D01*
Y52750D01*
X135167Y52334D01*
X136833D01*
X137250Y52750D01*
Y53584D01*
X136833Y54000D01*
X137250Y54833D02*
Y55666D01*
Y55250D01*
X134750D01*
X135167Y54833D01*
X119750Y84917D02*
X121833D01*
X122250Y85334D01*
Y86167D01*
X121833Y86584D01*
X119750D01*
X120167Y87416D02*
X119750Y87833D01*
Y88666D01*
X120167Y89083D01*
X120583D01*
X121000Y88666D01*
Y88250D01*
Y88666D01*
X121416Y89083D01*
X121833D01*
X122250Y88666D01*
Y87833D01*
X121833Y87416D01*
X76667Y44583D02*
X76250Y44167D01*
Y43334D01*
X76667Y42917D01*
X78333D01*
X78750Y43334D01*
Y44167D01*
X78333Y44583D01*
X76250Y47083D02*
X76667Y46250D01*
X77500Y45417D01*
X78333D01*
X78750Y45833D01*
Y46666D01*
X78333Y47083D01*
X77917D01*
X77500Y46666D01*
Y45417D01*
X85167Y44083D02*
X84750Y43667D01*
Y42834D01*
X85167Y42417D01*
X86833D01*
X87250Y42834D01*
Y43667D01*
X86833Y44083D01*
X84750Y46583D02*
Y44916D01*
X86000D01*
X85584Y45750D01*
Y46166D01*
X86000Y46583D01*
X86833D01*
X87250Y46166D01*
Y45333D01*
X86833Y44916D01*
X89750Y65876D02*
X87250D01*
Y67126D01*
X87667Y67542D01*
X88500D01*
X88916Y67126D01*
Y65876D01*
Y66709D02*
X89750Y67542D01*
Y68375D02*
Y69208D01*
Y68792D01*
X87250D01*
X87667Y68375D01*
X89750Y72124D02*
Y70458D01*
X88083Y72124D01*
X87667D01*
X87250Y71707D01*
Y70874D01*
X87667Y70458D01*
X94250Y65876D02*
X91750D01*
Y67126D01*
X92167Y67542D01*
X93000D01*
X93417Y67126D01*
Y65876D01*
Y66709D02*
X94250Y67542D01*
Y68375D02*
Y69208D01*
Y68792D01*
X91750D01*
X92167Y68375D01*
Y70458D02*
X91750Y70874D01*
Y71707D01*
X92167Y72124D01*
X93833D01*
X94250Y71707D01*
Y70874D01*
X93833Y70458D01*
X92167D01*
X135167Y95583D02*
X134750Y95167D01*
Y94334D01*
X135167Y93917D01*
X136833D01*
X137250Y94334D01*
Y95167D01*
X136833Y95583D01*
X135167Y96416D02*
X134750Y96833D01*
Y97666D01*
X135167Y98083D01*
X135583D01*
X136000Y97666D01*
Y97250D01*
Y97666D01*
X136416Y98083D01*
X136833D01*
X137250Y97666D01*
Y96833D01*
X136833Y96416D01*
X129918Y103750D02*
Y101250D01*
X131584D01*
X134083Y103750D02*
X132417D01*
Y101250D01*
X134083D01*
X132417Y102500D02*
X133250D01*
X134916Y103750D02*
Y101250D01*
X136166D01*
X136583Y101667D01*
Y103333D01*
X136166Y103750D01*
X134916D01*
X139082D02*
X137416D01*
Y102500D01*
X138249Y102917D01*
X138665D01*
X139082Y102500D01*
Y101667D01*
X138665Y101250D01*
X137832D01*
X137416Y101667D01*
X147417Y106750D02*
Y109250D01*
X148667D01*
X149083Y108833D01*
Y108000D01*
X148667Y107583D01*
X147417D01*
X148250D02*
X149083Y106750D01*
X151583Y109250D02*
X150750Y108833D01*
X149917Y108000D01*
Y107167D01*
X150333Y106750D01*
X151166D01*
X151583Y107167D01*
Y107583D01*
X151166Y108000D01*
X149917D01*
X159917Y106250D02*
Y108750D01*
X161167D01*
X161583Y108333D01*
Y107500D01*
X161167Y107083D01*
X159917D01*
X160750D02*
X161583Y106250D01*
X162417Y108750D02*
X164083D01*
Y108333D01*
X162417Y106667D01*
Y106250D01*
X204250Y136084D02*
X201750D01*
Y137334D01*
X202167Y137750D01*
X203000D01*
X203416Y137334D01*
Y136084D01*
X202167Y138584D02*
X201750Y139000D01*
Y139833D01*
X202167Y140250D01*
X202584D01*
X203000Y139833D01*
Y139417D01*
Y139833D01*
X203416Y140250D01*
X203833D01*
X204250Y139833D01*
Y139000D01*
X203833Y138584D01*
X204250Y141083D02*
Y141916D01*
Y141499D01*
X201750D01*
X202167Y141083D01*
X121750Y119917D02*
X119250D01*
Y121167D01*
X119667Y121583D01*
X120500D01*
X120916Y121167D01*
Y119917D01*
X119250Y124083D02*
X119667Y123250D01*
X120500Y122416D01*
X121333D01*
X121750Y122833D01*
Y123666D01*
X121333Y124083D01*
X120916D01*
X120500Y123666D01*
Y122416D01*
X121750Y133917D02*
X119250D01*
Y135167D01*
X119667Y135583D01*
X120500D01*
X120916Y135167D01*
Y133917D01*
X119250Y138083D02*
Y136416D01*
X120500D01*
X120083Y137250D01*
Y137666D01*
X120500Y138083D01*
X121333D01*
X121750Y137666D01*
Y136833D01*
X121333Y136416D01*
X121750Y147417D02*
X119250D01*
Y148667D01*
X119667Y149083D01*
X120500D01*
X120916Y148667D01*
Y147417D01*
X121750Y151166D02*
X119250D01*
X120500Y149917D01*
Y151583D01*
X87250Y119917D02*
X84750D01*
Y121167D01*
X85167Y121583D01*
X86000D01*
X86417Y121167D01*
Y119917D01*
X86833Y122416D02*
X87250Y122833D01*
Y123666D01*
X86833Y124083D01*
X85167D01*
X84750Y123666D01*
Y122833D01*
X85167Y122416D01*
X85584D01*
X86000Y122833D01*
Y124083D01*
X87250Y133917D02*
X84750D01*
Y135167D01*
X85167Y135583D01*
X86000D01*
X86417Y135167D01*
Y133917D01*
X85167Y136416D02*
X84750Y136833D01*
Y137666D01*
X85167Y138083D01*
X85584D01*
X86000Y137666D01*
X86417Y138083D01*
X86833D01*
X87250Y137666D01*
Y136833D01*
X86833Y136416D01*
X86417D01*
X86000Y136833D01*
X85584Y136416D01*
X85167D01*
X86000Y136833D02*
Y137666D01*
X87250Y147417D02*
X84750D01*
Y148667D01*
X85167Y149083D01*
X86000D01*
X86417Y148667D01*
Y147417D01*
X84750Y149917D02*
Y151583D01*
X85167D01*
X86833Y149917D01*
X87250D01*
X52750Y145876D02*
X50250D01*
Y147126D01*
X50667Y147542D01*
X51500D01*
X51916Y147126D01*
Y145876D01*
X52750Y148375D02*
Y149208D01*
Y148792D01*
X50250D01*
X50667Y148375D01*
Y150458D02*
X50250Y150874D01*
Y151707D01*
X50667Y152124D01*
X52333D01*
X52750Y151707D01*
Y150874D01*
X52333Y150458D01*
X50667D01*
X52250Y133293D02*
X49750D01*
Y134542D01*
X50167Y134959D01*
X51000D01*
X51416Y134542D01*
Y133293D01*
X52250Y135792D02*
Y136625D01*
Y136208D01*
X49750D01*
X50167Y135792D01*
X52250Y137874D02*
Y138707D01*
Y138291D01*
X49750D01*
X50167Y137874D01*
X52250Y119376D02*
X49750D01*
Y120626D01*
X50167Y121042D01*
X51000D01*
X51416Y120626D01*
Y119376D01*
X52250Y121875D02*
Y122708D01*
Y122292D01*
X49750D01*
X50167Y121875D01*
X52250Y125624D02*
Y123958D01*
X50583Y125624D01*
X50167D01*
X49750Y125207D01*
Y124374D01*
X50167Y123958D01*
X17250Y119376D02*
X14750D01*
Y120626D01*
X15167Y121042D01*
X16000D01*
X16417Y120626D01*
Y119376D01*
X17250Y121875D02*
Y122708D01*
Y122292D01*
X14750D01*
X15167Y121875D01*
X14750Y125624D02*
Y123958D01*
X16000D01*
X15583Y124791D01*
Y125207D01*
X16000Y125624D01*
X16833D01*
X17250Y125207D01*
Y124374D01*
X16833Y123958D01*
X17250Y133376D02*
X14750D01*
Y134626D01*
X15167Y135042D01*
X16000D01*
X16417Y134626D01*
Y133376D01*
X17250Y135875D02*
Y136708D01*
Y136292D01*
X14750D01*
X15167Y135875D01*
X17250Y139207D02*
X14750D01*
X16000Y137958D01*
Y139624D01*
X17750Y147876D02*
X15250D01*
Y149126D01*
X15667Y149542D01*
X16500D01*
X16917Y149126D01*
Y147876D01*
X17750Y150375D02*
Y151208D01*
Y150792D01*
X15250D01*
X15667Y150375D01*
Y152458D02*
X15250Y152874D01*
Y153708D01*
X15667Y154124D01*
X16083D01*
X16500Y153708D01*
Y153291D01*
Y153708D01*
X16917Y154124D01*
X17333D01*
X17750Y153708D01*
Y152874D01*
X17333Y152458D01*
X3750Y147917D02*
X6250D01*
X5416D01*
X3750Y149583D01*
X5000Y148334D01*
X6250Y149583D01*
X4167Y150417D02*
X3750Y150833D01*
Y151666D01*
X4167Y152083D01*
X4583D01*
X5000Y151666D01*
Y151250D01*
Y151666D01*
X5416Y152083D01*
X5833D01*
X6250Y151666D01*
Y150833D01*
X5833Y150417D01*
X156800Y131000D02*
Y133499D01*
X158050D01*
X158466Y133083D01*
Y132250D01*
X158050Y131833D01*
X156800D01*
X159299Y133083D02*
X159716Y133499D01*
X160549D01*
X160965Y133083D01*
Y132666D01*
X160549Y132250D01*
X160132D01*
X160549D01*
X160965Y131833D01*
Y131416D01*
X160549Y131000D01*
X159716D01*
X159299Y131416D01*
X156800Y144500D02*
Y146999D01*
X158050D01*
X158466Y146583D01*
Y145750D01*
X158050Y145333D01*
X156800D01*
X160965Y144500D02*
X159299D01*
X160965Y146166D01*
Y146583D01*
X160549Y146999D01*
X159716D01*
X159299Y146583D01*
X156800Y157500D02*
Y159999D01*
X158050D01*
X158466Y159583D01*
Y158750D01*
X158050Y158333D01*
X156800D01*
X159299Y157500D02*
X160132D01*
X159716D01*
Y159999D01*
X159299Y159583D01*
M02*
