G04*
G04 #@! TF.GenerationSoftware,Altium Limited,Altium Designer,22.5.1 (42)*
G04*
G04 Layer_Color=128*
%FSLAX25Y25*%
%MOIN*%
G70*
G04*
G04 #@! TF.SameCoordinates,902E8C23-112A-47C9-B83F-8B80DC396133*
G04*
G04*
G04 #@! TF.FilePolarity,Positive*
G04*
G01*
G75*
%ADD10C,0.00000*%
%ADD11C,0.00200*%
D10*
X224654Y63063D02*
G03*
X223256Y61665I0J-1398D01*
G01*
X226051D02*
G03*
X224654Y63063I-1398J0D01*
G01*
Y59087D02*
G03*
X226051Y60484I0J1398D01*
G01*
X223256D02*
G03*
X224654Y59087I1398J0D01*
G01*
X223256Y60484D02*
Y61665D01*
X226051Y60484D02*
Y61665D01*
D11*
X77728Y92500D02*
X81272D01*
X79500Y90728D02*
Y94272D01*
X77728Y102500D02*
X81272D01*
X79500Y100728D02*
Y104272D01*
X87728Y92500D02*
X91272D01*
X89500Y90728D02*
Y94272D01*
X87728Y102500D02*
X91272D01*
X89500Y100728D02*
Y104272D01*
X99728Y102000D02*
X103272D01*
X101500Y100228D02*
Y103772D01*
X109728Y102000D02*
X113272D01*
X111500Y100228D02*
Y103772D01*
X99728Y92000D02*
X103272D01*
X101500Y90228D02*
Y93772D01*
X109728Y92000D02*
X113272D01*
X111500Y90228D02*
Y93772D01*
X99728Y82000D02*
X103272D01*
X101500Y80228D02*
Y83772D01*
X109728Y82000D02*
X113272D01*
X111500Y80228D02*
Y83772D01*
X99728Y72000D02*
X103272D01*
X101500Y70228D02*
Y73772D01*
X109728Y72000D02*
X113272D01*
X111500Y70228D02*
Y73772D01*
X99728Y62000D02*
X103272D01*
X101500Y60228D02*
Y63772D01*
X109728Y62000D02*
X113272D01*
X111500Y60228D02*
Y63772D01*
X99728Y52000D02*
X103272D01*
X101500Y50228D02*
Y53772D01*
X109728Y52000D02*
X113272D01*
X111500Y50228D02*
Y53772D01*
X223256Y29579D02*
X226051D01*
X224654Y28181D02*
Y30976D01*
X223256Y61075D02*
X226051D01*
X224654Y59677D02*
Y62472D01*
X217843Y29579D02*
X220205D01*
X219024Y28398D02*
Y30760D01*
X217843Y61075D02*
X220205D01*
X219024Y59894D02*
Y62256D01*
X229102Y29579D02*
X231465D01*
X230283Y28398D02*
Y30760D01*
X229102Y61075D02*
X231465D01*
X230283Y59894D02*
Y62256D01*
X213610Y13000D02*
X227390D01*
X220500Y6110D02*
Y19890D01*
X193992Y18000D02*
X198008D01*
X196000Y15992D02*
Y20008D01*
X193992Y8000D02*
X198008D01*
X196000Y5992D02*
Y10008D01*
X193992Y28000D02*
X198008D01*
X196000Y25992D02*
Y30008D01*
X171492Y33000D02*
X175508D01*
X173500Y30992D02*
Y35008D01*
X161492Y33000D02*
X165508D01*
X163500Y30992D02*
Y35008D01*
X181492Y33000D02*
X185508D01*
X183500Y30992D02*
Y35008D01*
X171492Y20000D02*
X175508D01*
X173500Y17992D02*
Y22008D01*
X161492Y20000D02*
X165508D01*
X163500Y17992D02*
Y22008D01*
X181492Y20000D02*
X185508D01*
X183500Y17992D02*
Y22008D01*
X171492Y7500D02*
X175508D01*
X173500Y5492D02*
Y9508D01*
X161492Y7500D02*
X165508D01*
X163500Y5492D02*
Y9508D01*
X181492Y7500D02*
X185508D01*
X183500Y5492D02*
Y9508D01*
X136492Y33000D02*
X140508D01*
X138500Y30992D02*
Y35008D01*
X126492Y33000D02*
X130508D01*
X128500Y30992D02*
Y35008D01*
X146492Y33000D02*
X150508D01*
X148500Y30992D02*
Y35008D01*
X136617Y20000D02*
X140633D01*
X138625Y17992D02*
Y22008D01*
X126617Y20000D02*
X130633D01*
X128625Y17992D02*
Y22008D01*
X146617Y20000D02*
X150633D01*
X148625Y17992D02*
Y22008D01*
X136617Y7500D02*
X140633D01*
X138625Y5492D02*
Y9508D01*
X126617Y7500D02*
X130633D01*
X128625Y5492D02*
Y9508D01*
X146617Y7500D02*
X150633D01*
X148625Y5492D02*
Y9508D01*
X101992Y33000D02*
X106008D01*
X104000Y30992D02*
Y35008D01*
X91992Y33000D02*
X96008D01*
X94000Y30992D02*
Y35008D01*
X111992Y33000D02*
X116008D01*
X114000Y30992D02*
Y35008D01*
X101992Y20000D02*
X106008D01*
X104000Y17992D02*
Y22008D01*
X91992Y20000D02*
X96008D01*
X94000Y17992D02*
Y22008D01*
X111992Y20000D02*
X116008D01*
X114000Y17992D02*
Y22008D01*
X101992Y7500D02*
X106008D01*
X104000Y5492D02*
Y9508D01*
X91992Y7500D02*
X96008D01*
X94000Y5492D02*
Y9508D01*
X111992Y7500D02*
X116008D01*
X114000Y5492D02*
Y9508D01*
X66867Y7500D02*
X70883D01*
X68875Y5492D02*
Y9508D01*
X56867Y7500D02*
X60883D01*
X58875Y5492D02*
Y9508D01*
X76867Y7500D02*
X80883D01*
X78875Y5492D02*
Y9508D01*
X66867Y20000D02*
X70883D01*
X68875Y17992D02*
Y22008D01*
X56867Y20000D02*
X60883D01*
X58875Y17992D02*
Y22008D01*
X76867Y20000D02*
X80883D01*
X78875Y17992D02*
Y22008D01*
X66992Y33000D02*
X71008D01*
X69000Y30992D02*
Y35008D01*
X56992Y33000D02*
X61008D01*
X59000Y30992D02*
Y35008D01*
X76992Y33000D02*
X81008D01*
X79000Y30992D02*
Y35008D01*
X31992Y33000D02*
X36008D01*
X34000Y30992D02*
Y35008D01*
X21992Y33000D02*
X26008D01*
X24000Y30992D02*
Y35008D01*
X41992Y33000D02*
X46008D01*
X44000Y30992D02*
Y35008D01*
X41992Y20000D02*
X46008D01*
X44000Y17992D02*
Y22008D01*
X21992Y20000D02*
X26008D01*
X24000Y17992D02*
Y22008D01*
X31992Y20000D02*
X36008D01*
X34000Y17992D02*
Y22008D01*
X31992Y7500D02*
X36008D01*
X34000Y5492D02*
Y9508D01*
X21992Y7500D02*
X26008D01*
X24000Y5492D02*
Y9508D01*
X41992Y7500D02*
X46008D01*
X44000Y5492D02*
Y9508D01*
X214689Y85500D02*
X218311D01*
X216500Y83689D02*
Y87311D01*
X214689Y95342D02*
X218311D01*
X216500Y93532D02*
Y97154D01*
X214689Y103217D02*
X218311D01*
X216500Y101406D02*
Y105028D01*
X214689Y113059D02*
X218311D01*
X216500Y111248D02*
Y114870D01*
X222642Y73413D02*
X231697D01*
X227169Y68886D02*
Y77941D01*
X222642Y125146D02*
X231697D01*
X227169Y120618D02*
Y129673D01*
X213610Y143500D02*
X227390D01*
X220500Y136610D02*
Y150390D01*
X192992Y139000D02*
X197008D01*
X195000Y136992D02*
Y141008D01*
X192992Y149000D02*
X197008D01*
X195000Y146992D02*
Y151008D01*
X192992Y129000D02*
X197008D01*
X195000Y126992D02*
Y131008D01*
X135742Y122500D02*
X139758D01*
X137750Y120492D02*
Y124508D01*
X125742Y122500D02*
X129758D01*
X127750Y120492D02*
Y124508D01*
X145742Y122500D02*
X149758D01*
X147750Y120492D02*
Y124508D01*
X135742Y136000D02*
X139758D01*
X137750Y133992D02*
Y138008D01*
X125742Y136000D02*
X129758D01*
X127750Y133992D02*
Y138008D01*
X145742Y136000D02*
X149758D01*
X147750Y133992D02*
Y138008D01*
X135867Y149000D02*
X139883D01*
X137875Y146992D02*
Y151008D01*
X125867Y149000D02*
X129883D01*
X127875Y146992D02*
Y151008D01*
X145867Y149000D02*
X149883D01*
X147875Y146992D02*
Y151008D01*
X100992Y122500D02*
X105008D01*
X103000Y120492D02*
Y124508D01*
X90992Y122500D02*
X95008D01*
X93000Y120492D02*
Y124508D01*
X110992Y122500D02*
X115008D01*
X113000Y120492D02*
Y124508D01*
X100992Y136000D02*
X105008D01*
X103000Y133992D02*
Y138008D01*
X90992Y136000D02*
X95008D01*
X93000Y133992D02*
Y138008D01*
X110992Y136000D02*
X115008D01*
X113000Y133992D02*
Y138008D01*
X101242Y149000D02*
X105258D01*
X103250Y146992D02*
Y151008D01*
X91242Y149000D02*
X95258D01*
X93250Y146992D02*
Y151008D01*
X111242Y149000D02*
X115258D01*
X113250Y146992D02*
Y151008D01*
X66617Y149000D02*
X70633D01*
X68625Y146992D02*
Y151008D01*
X56617Y149000D02*
X60633D01*
X58625Y146992D02*
Y151008D01*
X76617Y149000D02*
X80633D01*
X78625Y146992D02*
Y151008D01*
X66242Y136000D02*
X70258D01*
X68250Y133992D02*
Y138008D01*
X56242Y136000D02*
X60258D01*
X58250Y133992D02*
Y138008D01*
X76242Y136000D02*
X80258D01*
X78250Y133992D02*
Y138008D01*
X66242Y122500D02*
X70258D01*
X68250Y120492D02*
Y124508D01*
X56242Y122500D02*
X60258D01*
X58250Y120492D02*
Y124508D01*
X76242Y122500D02*
X80258D01*
X78250Y120492D02*
Y124508D01*
X31492Y122500D02*
X35508D01*
X33500Y120492D02*
Y124508D01*
X21492Y122500D02*
X25508D01*
X23500Y120492D02*
Y124508D01*
X41492Y122500D02*
X45508D01*
X43500Y120492D02*
Y124508D01*
X31492Y136000D02*
X35508D01*
X33500Y133992D02*
Y138008D01*
X21492Y136000D02*
X25508D01*
X23500Y133992D02*
Y138008D01*
X41492Y136000D02*
X45508D01*
X43500Y133992D02*
Y138008D01*
X31992Y149000D02*
X36008D01*
X34000Y146992D02*
Y151008D01*
X21992Y149000D02*
X26008D01*
X24000Y146992D02*
Y151008D01*
X41992Y149000D02*
X46008D01*
X44000Y146992D02*
Y151008D01*
X180492Y149000D02*
X184508D01*
X182500Y146992D02*
Y151008D01*
X160492Y149000D02*
X164508D01*
X162500Y146992D02*
Y151008D01*
X170492Y149000D02*
X174508D01*
X172500Y146992D02*
Y151008D01*
X180492Y136000D02*
X184508D01*
X182500Y133992D02*
Y138008D01*
X160492Y136000D02*
X164508D01*
X162500Y133992D02*
Y138008D01*
X170492Y136000D02*
X174508D01*
X172500Y133992D02*
Y138008D01*
X180492Y122500D02*
X184508D01*
X182500Y120492D02*
Y124508D01*
X160492Y122500D02*
X164508D01*
X162500Y120492D02*
Y124508D01*
X170492Y122500D02*
X174508D01*
X172500Y120492D02*
Y124508D01*
X82400Y47500D02*
X83600D01*
X83000Y46900D02*
Y48100D01*
X41900Y41500D02*
X43100D01*
X42500Y40900D02*
Y42100D01*
X85900Y14000D02*
X87100D01*
X86500Y13400D02*
Y14600D01*
X85900Y17736D02*
X87100D01*
X86500Y17136D02*
Y18336D01*
X85900Y20817D02*
X87100D01*
X86500Y20217D02*
Y21417D01*
X36400Y40500D02*
X37600D01*
X37000Y39900D02*
Y41100D01*
X31400Y41000D02*
X32600D01*
X32000Y40400D02*
Y41600D01*
X39885Y7985D02*
X41085D01*
X40485Y7385D02*
Y8585D01*
X46512Y43874D02*
X47712D01*
X47112Y43274D02*
Y44474D01*
X53907Y44431D02*
X55107D01*
X54507Y43831D02*
Y45031D01*
X46400Y53941D02*
X47600D01*
X47000Y53341D02*
Y54541D01*
X6266Y60599D02*
X7466D01*
X6866Y59999D02*
Y61199D01*
X3716Y56000D02*
X4916D01*
X4316Y55400D02*
Y56600D01*
X45900Y101756D02*
X47100D01*
X46500Y101156D02*
Y102356D01*
X30400Y101500D02*
X31600D01*
X31000Y100900D02*
Y102100D01*
X15900Y97062D02*
X17100D01*
X16500Y96462D02*
Y97662D01*
X29227Y95673D02*
X30427D01*
X29827Y95073D02*
Y96273D01*
X42728Y73805D02*
X43928D01*
X43328Y73205D02*
Y74405D01*
X126319Y62581D02*
X127519D01*
X126919Y61981D02*
Y63181D01*
X134900Y76000D02*
X136100D01*
X135500Y75400D02*
Y76600D01*
X161900Y67154D02*
X163100D01*
X162500Y66553D02*
Y67753D01*
X188400Y47000D02*
X189600D01*
X189000Y46400D02*
Y47600D01*
X161900Y83000D02*
X163100D01*
X162500Y82400D02*
Y83600D01*
X128093Y54000D02*
X129293D01*
X128693Y53400D02*
Y54600D01*
X128593Y96500D02*
X129793D01*
X129193Y95900D02*
Y97100D01*
X146900Y93500D02*
X148100D01*
X147500Y92900D02*
Y94100D01*
X135400Y89000D02*
X136600D01*
X136000Y88400D02*
Y89600D01*
X88400Y78000D02*
X89600D01*
X89000Y77400D02*
Y78600D01*
X91592Y64406D02*
X92792D01*
X92192Y63806D02*
Y65005D01*
X91900Y57500D02*
X93100D01*
X92500Y56900D02*
Y58100D01*
X36400Y55642D02*
X37600D01*
X37000Y55042D02*
Y56242D01*
X30577Y73114D02*
X31777D01*
X31177Y72514D02*
Y73714D01*
X5400Y82000D02*
X6600D01*
X6000Y81400D02*
Y82600D01*
X31857Y82386D02*
X33057D01*
X32457Y81786D02*
Y82986D01*
X127400Y79500D02*
X128600D01*
X128000Y78900D02*
Y80100D01*
X105900Y96500D02*
X107100D01*
X106500Y95900D02*
Y97100D01*
X65400Y116000D02*
X66600D01*
X66000Y115400D02*
Y116600D01*
X30318Y132318D02*
X31518D01*
X30918Y131718D02*
Y132918D01*
X27083Y132500D02*
X28283D01*
X27683Y131900D02*
Y133100D01*
X74400Y140000D02*
X75600D01*
X75000Y139400D02*
Y140600D01*
X72900Y135000D02*
X74100D01*
X73500Y134400D02*
Y135600D01*
X50400Y115500D02*
X51600D01*
X51000Y114900D02*
Y116100D01*
X47899Y81305D02*
X49099D01*
X48499Y80705D02*
Y81905D01*
X50400Y101000D02*
X51600D01*
X51000Y100400D02*
Y101600D01*
X46125Y96469D02*
X47325D01*
X46725Y95869D02*
Y97070D01*
X47778Y88878D02*
X48978D01*
X48378Y88278D02*
Y89478D01*
X224400Y51500D02*
X225600D01*
X225000Y50900D02*
Y52100D01*
X215900Y53000D02*
X217100D01*
X216500Y52400D02*
Y53600D01*
X202400Y42756D02*
X203600D01*
X203000Y42156D02*
Y43356D01*
X18400Y95000D02*
X19600D01*
X19000Y94400D02*
Y95600D01*
X12400Y98500D02*
X13600D01*
X13000Y97900D02*
Y99100D01*
X57900Y73500D02*
X59100D01*
X58500Y72900D02*
Y74100D01*
X54400Y71500D02*
X55600D01*
X55000Y70900D02*
Y72100D01*
X76361Y77994D02*
X77561D01*
X76961Y77394D02*
Y78594D01*
X47900Y73000D02*
X49100D01*
X48500Y72400D02*
Y73600D01*
X196282Y75114D02*
X197482D01*
X196882Y74514D02*
Y75714D01*
X160900Y102000D02*
X162100D01*
X161500Y101400D02*
Y102600D01*
X169900Y102144D02*
X171100D01*
X170500Y101544D02*
Y102744D01*
X168900Y107000D02*
X170100D01*
X169500Y106400D02*
Y107600D01*
X196045Y93145D02*
X197245D01*
X196645Y92545D02*
Y93745D01*
X123520Y96481D02*
X124720D01*
X124120Y95881D02*
Y97081D01*
X130286Y108788D02*
X131486D01*
X130886Y108188D02*
Y109388D01*
X61900Y111500D02*
X63100D01*
X62500Y110900D02*
Y112100D01*
X92900Y52500D02*
X94100D01*
X93500Y51900D02*
Y53100D01*
X97606Y44543D02*
X98806D01*
X98206Y43943D02*
Y45143D01*
X14900Y56000D02*
X16100D01*
X15500Y55400D02*
Y56600D01*
X57765Y66670D02*
X58965D01*
X58365Y66070D02*
Y67270D01*
X26900Y56500D02*
X28100D01*
X27500Y55900D02*
Y57100D01*
X92900Y49000D02*
X94100D01*
X93500Y48400D02*
Y49600D01*
X31400Y58500D02*
X32600D01*
X32000Y57900D02*
Y59100D01*
X49900Y59500D02*
X51100D01*
X50500Y58900D02*
Y60100D01*
X36900Y66000D02*
X38100D01*
X37500Y65400D02*
Y66600D01*
X34416Y68971D02*
X35616D01*
X35016Y68371D02*
Y69571D01*
X39610Y67836D02*
X40810D01*
X40210Y67236D02*
Y68436D01*
X60400Y58590D02*
X61600D01*
X61000Y57990D02*
Y59190D01*
X60900Y66741D02*
X62100D01*
X61500Y66141D02*
Y67341D01*
X76400Y66741D02*
X77600D01*
X77000Y66141D02*
Y67341D01*
X199400Y70500D02*
X200600D01*
X200000Y69900D02*
Y71100D01*
X180766Y79812D02*
X181966D01*
X181366Y79212D02*
Y80412D01*
X222400Y44500D02*
X223600D01*
X223000Y43900D02*
Y45100D01*
X94929Y46465D02*
X96129D01*
X95529Y45865D02*
Y47065D01*
X19647Y58106D02*
X20847D01*
X20247Y57507D02*
Y58706D01*
X16473Y59261D02*
X17673D01*
X17073Y58661D02*
Y59861D01*
X8900Y56000D02*
X10100D01*
X9500Y55400D02*
Y56600D01*
X9479Y6269D02*
X10679D01*
X10079Y5669D02*
Y6869D01*
X8845Y65984D02*
X10045D01*
X9445Y65384D02*
Y66584D01*
X11384Y63911D02*
X12584D01*
X11984Y63311D02*
Y64511D01*
X6266Y68019D02*
X7466D01*
X6866Y67419D02*
Y68619D01*
X13943Y61824D02*
X15143D01*
X14543Y61224D02*
Y62424D01*
X39400Y20000D02*
X40600D01*
X40000Y19400D02*
Y20600D01*
X74318Y32620D02*
X75518D01*
X74918Y32020D02*
Y33220D01*
X73922Y20084D02*
X75122D01*
X74522Y19484D02*
Y20684D01*
X74400Y7501D02*
X75600D01*
X75000Y6901D02*
Y8101D01*
X39400Y33000D02*
X40600D01*
X40000Y32400D02*
Y33600D01*
X9321Y150231D02*
X10521D01*
X9921Y149631D02*
Y150831D01*
X47900Y66307D02*
X49100D01*
X48500Y65707D02*
Y66907D01*
X166401Y79072D02*
X167601D01*
X167001Y78472D02*
Y79672D01*
X165400Y63000D02*
X166600D01*
X166000Y62400D02*
Y63600D01*
X161900Y89693D02*
X163100D01*
X162500Y89093D02*
Y90293D01*
X150400Y58000D02*
X151600D01*
X151000Y57400D02*
Y58600D01*
X180432Y63746D02*
X181632D01*
X181032Y63146D02*
Y64346D01*
X173400Y64000D02*
X174600D01*
X174000Y63400D02*
Y64600D01*
X161900Y51307D02*
X163100D01*
X162500Y50707D02*
Y51907D01*
X161900Y58000D02*
X163100D01*
X162500Y57400D02*
Y58600D01*
X154400Y73693D02*
X155600D01*
X155000Y73093D02*
Y74293D01*
X161900Y73847D02*
X163100D01*
X162500Y73247D02*
Y74446D01*
X208900Y99000D02*
X210100D01*
X209500Y98400D02*
Y99600D01*
X223687Y48331D02*
X224887D01*
X224287Y47731D02*
Y48931D01*
X225400Y43000D02*
X226600D01*
X226000Y42400D02*
Y43600D01*
M02*
