G04*
G04 #@! TF.GenerationSoftware,Altium Limited,Altium Designer,22.5.1 (42)*
G04*
G04 Layer_Color=255*
%FSLAX25Y25*%
%MOIN*%
G70*
G04*
G04 #@! TF.SameCoordinates,6DAD0714-FCB9-4B36-A7BF-7B223F3C5BEE*
G04*
G04*
G04 #@! TF.FilePolarity,Positive*
G04*
G01*
G75*
%ADD15R,0.04528X0.01181*%
%ADD16R,0.03937X0.04331*%
%ADD17R,0.03000X0.03000*%
%ADD18R,0.04724X0.07087*%
%ADD19R,0.04724X0.07874*%
%ADD20R,0.07874X0.04724*%
%ADD21R,0.03937X0.05512*%
%ADD22R,0.03000X0.03000*%
%ADD23R,0.05118X0.05906*%
%ADD24R,0.04331X0.03937*%
G04:AMPARAMS|DCode=25|XSize=51.58mil|YSize=36.61mil|CornerRadius=2.75mil|HoleSize=0mil|Usage=FLASHONLY|Rotation=90.000|XOffset=0mil|YOffset=0mil|HoleType=Round|Shape=RoundedRectangle|*
%AMROUNDEDRECTD25*
21,1,0.05158,0.03112,0,0,90.0*
21,1,0.04608,0.03661,0,0,90.0*
1,1,0.00549,0.01556,0.02304*
1,1,0.00549,0.01556,-0.02304*
1,1,0.00549,-0.01556,-0.02304*
1,1,0.00549,-0.01556,0.02304*
%
%ADD25ROUNDEDRECTD25*%
G04:AMPARAMS|DCode=26|XSize=51.58mil|YSize=127.56mil|CornerRadius=3.87mil|HoleSize=0mil|Usage=FLASHONLY|Rotation=90.000|XOffset=0mil|YOffset=0mil|HoleType=Round|Shape=RoundedRectangle|*
%AMROUNDEDRECTD26*
21,1,0.05158,0.11982,0,0,90.0*
21,1,0.04384,0.12756,0,0,90.0*
1,1,0.00774,0.05991,0.02192*
1,1,0.00774,0.05991,-0.02192*
1,1,0.00774,-0.05991,-0.02192*
1,1,0.00774,-0.05991,0.02192*
%
%ADD26ROUNDEDRECTD26*%
%ADD50C,0.05906*%
%ADD51R,0.05906X0.05906*%
%ADD52R,0.05906X0.05906*%
%ADD53C,0.02795*%
%ADD54O,0.04331X0.06299*%
%ADD55C,0.19685*%
%ADD56C,0.05394*%
%ADD57R,0.05622X0.05622*%
%ADD58C,0.05622*%
%ADD59C,0.09055*%
D15*
X218807Y34500D02*
D03*
X230500D02*
D03*
X218807Y40405D02*
D03*
Y42374D02*
D03*
Y44342D02*
D03*
Y46311D02*
D03*
Y48280D02*
D03*
Y50248D02*
D03*
Y56154D02*
D03*
X230500Y40405D02*
D03*
Y42374D02*
D03*
Y44342D02*
D03*
Y46311D02*
D03*
Y48280D02*
D03*
Y50248D02*
D03*
Y56154D02*
D03*
D16*
X209755Y47133D02*
D03*
Y53826D02*
D03*
Y30416D02*
D03*
Y37109D02*
D03*
X78000Y59000D02*
D03*
Y52307D02*
D03*
X87000Y59193D02*
D03*
Y52500D02*
D03*
D17*
X203000Y37244D02*
D03*
Y42756D02*
D03*
X202961Y53394D02*
D03*
Y47882D02*
D03*
X197000Y42744D02*
D03*
Y48256D02*
D03*
X83539Y77994D02*
D03*
Y83506D02*
D03*
X76961D02*
D03*
Y77994D02*
D03*
Y72256D02*
D03*
Y66744D02*
D03*
X83500Y72256D02*
D03*
Y66744D02*
D03*
D18*
X10079Y6269D02*
D03*
X10000Y37500D02*
D03*
X158079Y59269D02*
D03*
X158000Y90500D02*
D03*
X9921Y150231D02*
D03*
X10000Y119000D02*
D03*
D19*
X62417Y109996D02*
D03*
X54543D02*
D03*
X46669D02*
D03*
X38795D02*
D03*
X30921D02*
D03*
X23047D02*
D03*
X15173D02*
D03*
X7299D02*
D03*
Y47004D02*
D03*
X23047D02*
D03*
X15173D02*
D03*
X30921D02*
D03*
X38795D02*
D03*
X46669D02*
D03*
X54543D02*
D03*
X62417D02*
D03*
D20*
X68244Y98185D02*
D03*
Y90311D02*
D03*
Y82437D02*
D03*
Y74563D02*
D03*
Y66689D02*
D03*
Y58815D02*
D03*
D21*
X203000Y112831D02*
D03*
X206740Y104169D02*
D03*
X199260D02*
D03*
X203000Y77169D02*
D03*
X199260Y85831D02*
D03*
X206740D02*
D03*
D22*
X205106Y98000D02*
D03*
X199594D02*
D03*
Y92500D02*
D03*
X205106D02*
D03*
X152256Y112000D02*
D03*
X146744D02*
D03*
X164756D02*
D03*
X159244D02*
D03*
D23*
X181366Y58500D02*
D03*
X173886Y58500D02*
D03*
X173886Y69156D02*
D03*
X181366Y69156D02*
D03*
X173886Y90469D02*
D03*
X181366Y90469D02*
D03*
X181366Y79812D02*
D03*
X173886Y79812D02*
D03*
X130886Y109468D02*
D03*
X138366Y109468D02*
D03*
D24*
X128693Y54000D02*
D03*
X122000D02*
D03*
X129193Y96500D02*
D03*
X122500D02*
D03*
D25*
X122484Y62661D02*
D03*
X131500D02*
D03*
X140516D02*
D03*
D26*
X131500Y89000D02*
D03*
D50*
X79500Y92500D02*
D03*
Y102500D02*
D03*
X89500Y92500D02*
D03*
X111500Y102000D02*
D03*
X101500Y92000D02*
D03*
X111500D02*
D03*
X101500Y82000D02*
D03*
X111500D02*
D03*
X101500Y72000D02*
D03*
X111500D02*
D03*
X101500Y62000D02*
D03*
X111500D02*
D03*
X101500Y52000D02*
D03*
X111500D02*
D03*
D51*
X89500Y102500D02*
D03*
D52*
X101500Y102000D02*
D03*
D53*
X224654Y29579D02*
D03*
Y61075D02*
D03*
D54*
X219024Y29579D02*
D03*
Y61075D02*
D03*
X230283Y29579D02*
D03*
Y61075D02*
D03*
D55*
X220500Y13000D02*
D03*
Y143500D02*
D03*
D56*
X196000Y18000D02*
D03*
Y8000D02*
D03*
Y28000D02*
D03*
X173500Y33000D02*
D03*
X163500D02*
D03*
X183500D02*
D03*
X173500Y20000D02*
D03*
X163500D02*
D03*
X183500D02*
D03*
X173500Y7500D02*
D03*
X163500D02*
D03*
X183500D02*
D03*
X138500Y33000D02*
D03*
X128500D02*
D03*
X148500D02*
D03*
X138625Y20000D02*
D03*
X128625D02*
D03*
X148625D02*
D03*
X138625Y7500D02*
D03*
X128625D02*
D03*
X148625D02*
D03*
X104000Y33000D02*
D03*
X94000D02*
D03*
X114000D02*
D03*
X104000Y20000D02*
D03*
X94000D02*
D03*
X114000D02*
D03*
X104000Y7500D02*
D03*
X94000D02*
D03*
X114000D02*
D03*
X68875D02*
D03*
X58875D02*
D03*
X78875D02*
D03*
X68875Y20000D02*
D03*
X58875D02*
D03*
X78875D02*
D03*
X69000Y33000D02*
D03*
X59000D02*
D03*
X79000D02*
D03*
X34000D02*
D03*
X24000D02*
D03*
X44000D02*
D03*
Y20000D02*
D03*
X24000D02*
D03*
X34000D02*
D03*
Y7500D02*
D03*
X24000D02*
D03*
X44000D02*
D03*
X195000Y139000D02*
D03*
Y149000D02*
D03*
Y129000D02*
D03*
X137750Y122500D02*
D03*
X127750D02*
D03*
X147750D02*
D03*
X137750Y136000D02*
D03*
X127750D02*
D03*
X147750D02*
D03*
X137875Y149000D02*
D03*
X127875D02*
D03*
X147875D02*
D03*
X103000Y122500D02*
D03*
X93000D02*
D03*
X113000D02*
D03*
X103000Y136000D02*
D03*
X93000D02*
D03*
X113000D02*
D03*
X103250Y149000D02*
D03*
X93250D02*
D03*
X113250D02*
D03*
X68625D02*
D03*
X58625D02*
D03*
X78625D02*
D03*
X68250Y136000D02*
D03*
X58250D02*
D03*
X78250D02*
D03*
X68250Y122500D02*
D03*
X58250D02*
D03*
X78250D02*
D03*
X33500D02*
D03*
X23500D02*
D03*
X43500D02*
D03*
X33500Y136000D02*
D03*
X23500D02*
D03*
X43500D02*
D03*
X34000Y149000D02*
D03*
X24000D02*
D03*
X44000D02*
D03*
X182500D02*
D03*
X162500D02*
D03*
X172500D02*
D03*
X182500Y136000D02*
D03*
X162500D02*
D03*
X172500D02*
D03*
X182500Y122500D02*
D03*
X162500D02*
D03*
X172500D02*
D03*
D57*
X216500Y85500D02*
D03*
D58*
Y95342D02*
D03*
Y103217D02*
D03*
Y113059D02*
D03*
D59*
X227169Y73413D02*
D03*
Y125146D02*
D03*
M02*
