G04*
G04 #@! TF.GenerationSoftware,Altium Limited,Altium Designer,22.5.1 (42)*
G04*
G04 Layer_Color=32768*
%FSLAX44Y44*%
%MOMM*%
G71*
G04*
G04 #@! TF.SameCoordinates,9C5F1FD5-D168-4BD4-AFD7-B07BC7FD1A44*
G04*
G04*
G04 #@! TF.FilePolarity,Positive*
G04*
G01*
G75*
%ADD88C,0.1000*%
%ADD89C,0.0500*%
D88*
X393510Y144780D02*
X401510D01*
X397510Y140780D02*
Y148780D01*
X392010Y132280D02*
X403010D01*
X392010D02*
Y157280D01*
X403010D01*
Y132280D02*
Y157280D01*
X59690Y233760D02*
Y243760D01*
X54690Y238760D02*
X64690D01*
X114110Y251460D02*
X122110D01*
X118110Y247460D02*
Y255460D01*
X112610Y238960D02*
X123610D01*
X112610D02*
Y263960D01*
X123610D01*
Y238960D02*
Y263960D01*
X115380Y142890D02*
X123380D01*
X119380Y138890D02*
Y146890D01*
X113880Y155390D02*
X124880D01*
Y130390D02*
Y155390D01*
X113880Y130390D02*
X124880D01*
X113880D02*
Y155390D01*
X54690Y156210D02*
X64690D01*
X59690Y151210D02*
Y161210D01*
X454740Y149860D02*
X464740D01*
X459740Y144860D02*
Y154860D01*
X511620Y101600D02*
X519620D01*
X515620Y97600D02*
Y105600D01*
X510120Y89100D02*
X521120D01*
Y114100D01*
X510120D02*
X521120D01*
X510120Y89100D02*
Y114100D01*
X511520Y128620D02*
X519520D01*
X515520Y124620D02*
Y132620D01*
X510020Y141120D02*
X521020D01*
X510020Y116120D02*
Y141120D01*
Y116120D02*
X521020D01*
Y141120D01*
X496380Y115570D02*
X504380D01*
X500380Y111570D02*
Y119570D01*
X494880Y103070D02*
X505880D01*
Y128070D01*
X494880D02*
X505880D01*
X494880Y103070D02*
Y128070D01*
X208190Y205105D02*
X216190D01*
X212190Y201105D02*
Y209105D01*
X206690Y192605D02*
X217690D01*
Y217605D01*
X206690D02*
X217690D01*
X206690Y192605D02*
Y217605D01*
X191480Y205105D02*
X199480D01*
X195480Y201105D02*
Y209105D01*
X189980Y217605D02*
X200980D01*
X189980Y192605D02*
Y217605D01*
Y192605D02*
X200980D01*
Y217605D01*
X501470Y254420D02*
X526470D01*
Y243420D02*
Y254420D01*
X501470Y243420D02*
X526470D01*
X501470D02*
Y254420D01*
X509970Y248920D02*
X517970D01*
X513970Y244920D02*
Y252920D01*
X501470Y229450D02*
X526470D01*
X501470D02*
Y240450D01*
X526470D01*
Y229450D02*
Y240450D01*
X509970Y234950D02*
X517970D01*
X513970Y230950D02*
Y238950D01*
X191480Y176530D02*
X199480D01*
X195480Y172530D02*
Y180530D01*
X189980Y189030D02*
X200980D01*
X189980Y164030D02*
Y189030D01*
Y164030D02*
X200980D01*
Y189030D01*
X208090Y176530D02*
X216090D01*
X212090Y172530D02*
Y180530D01*
X206590Y189030D02*
X217590D01*
X206590Y164030D02*
Y189030D01*
Y164030D02*
X217590D01*
Y189030D01*
X379730Y280480D02*
Y288480D01*
X375730Y284480D02*
X383730D01*
X392230Y278980D02*
Y289980D01*
X367230D02*
X392230D01*
X367230Y278980D02*
Y289980D01*
Y278980D02*
X392230D01*
X411480Y280480D02*
Y288480D01*
X407480Y284480D02*
X415480D01*
X423980Y278980D02*
Y289980D01*
X398980D02*
X423980D01*
X398980Y278980D02*
Y289980D01*
Y278980D02*
X423980D01*
D89*
X28900Y55880D02*
G03*
X28900Y55880I-3500J0D01*
G01*
X404820Y190500D02*
G03*
X404820Y190500I-3500J0D01*
G01*
X28899Y341630D02*
G03*
X28899Y341630I-3500J0D01*
G01*
X8190Y199760D02*
X111190D01*
X8190Y277760D02*
X111190D01*
Y199760D02*
Y277760D01*
X8190Y199760D02*
Y277760D01*
Y117210D02*
Y195210D01*
X111190Y117210D02*
Y195210D01*
X8190D02*
X111190D01*
X8190Y117210D02*
X111190D01*
X422740Y121860D02*
Y177860D01*
X496740Y121860D02*
Y177860D01*
X422740Y121860D02*
X496740D01*
X422740Y177860D02*
X496740D01*
X547520Y64630D02*
X593720D01*
Y165630D01*
X547520D02*
X593720D01*
X547520Y64630D02*
Y165630D01*
X513040Y5120D02*
Y86320D01*
X482640Y5120D02*
X513040D01*
X482640D02*
Y86320D01*
X513040D01*
X400090Y68620D02*
X481290D01*
X400090D02*
Y99020D01*
X481290D01*
Y68620D02*
Y99020D01*
X400090Y35600D02*
X481290D01*
X400090D02*
Y66000D01*
X481290D01*
Y35600D02*
Y66000D01*
X400090Y3850D02*
X481290D01*
X400090D02*
Y34250D01*
X481290D01*
Y3850D02*
Y34250D01*
X311190Y68620D02*
X392390D01*
X311190D02*
Y99020D01*
X392390D01*
Y68620D02*
Y99020D01*
X311507Y35600D02*
X392707D01*
X311507D02*
Y66000D01*
X392707D01*
Y35600D02*
Y66000D01*
X311507Y3850D02*
X392707D01*
X311507D02*
Y34250D01*
X392707D01*
Y3850D02*
Y34250D01*
X223560Y68620D02*
X304760D01*
X223560D02*
Y99020D01*
X304760D01*
Y68620D02*
Y99020D01*
X223560Y35600D02*
X304760D01*
X223560D02*
Y66000D01*
X304760D01*
Y35600D02*
Y66000D01*
X223560Y3850D02*
X304760D01*
X223560D02*
Y34250D01*
X304760D01*
Y3850D02*
Y34250D01*
X134342Y3850D02*
X215543D01*
X134342D02*
Y34250D01*
X215543D01*
Y3850D02*
Y34250D01*
X134342Y35600D02*
X215543D01*
X134342D02*
Y66000D01*
X215543D01*
Y35600D02*
Y66000D01*
X134660Y68620D02*
X215860D01*
X134660D02*
Y99020D01*
X215860D01*
Y68620D02*
Y99020D01*
X45760Y68620D02*
X126960D01*
X45760D02*
Y99020D01*
X126960D01*
Y68620D02*
Y99020D01*
Y35600D02*
Y66000D01*
X45760D02*
X126960D01*
X45760Y35600D02*
Y66000D01*
Y35600D02*
X126960D01*
X45760Y3850D02*
X126960D01*
X45760D02*
Y34250D01*
X126960D01*
Y3850D02*
Y34250D01*
X25400Y50880D02*
Y60880D01*
X20400Y55880D02*
X30400D01*
X401320Y185500D02*
Y195500D01*
X396320Y190500D02*
X406320D01*
X536510Y184170D02*
Y320170D01*
X564010D01*
Y330170D01*
X589510D01*
Y320170D02*
Y330170D01*
Y320170D02*
X682510D01*
Y184170D02*
Y320170D01*
X589510Y184170D02*
X682510D01*
X589510Y174170D02*
Y184170D01*
X564010Y174170D02*
X589510D01*
X564010D02*
Y184170D01*
X536510D02*
X564010D01*
X298985Y150110D02*
Y235110D01*
Y150110D02*
X369035D01*
Y235110D01*
X298985D02*
X369035D01*
X480100Y312460D02*
Y393660D01*
X510500D01*
Y312460D02*
Y393660D01*
X480100Y312460D02*
X510500D01*
X309285Y295950D02*
X390485D01*
X309285D02*
Y326350D01*
X390485D01*
Y295950D02*
Y326350D01*
X309285Y330240D02*
X390485D01*
X309285D02*
Y360640D01*
X390485D01*
Y330240D02*
Y360640D01*
X309603Y363260D02*
X390802D01*
X309603D02*
Y393660D01*
X390802D01*
Y363260D02*
Y393660D01*
X221020Y295950D02*
X302220D01*
X221020D02*
Y326350D01*
X302220D01*
Y295950D02*
Y326350D01*
X221020Y330240D02*
X302220D01*
X221020D02*
Y360640D01*
X302220D01*
Y330240D02*
Y360640D01*
X221655Y363260D02*
X302855D01*
X221655D02*
Y393660D01*
X302855D01*
Y363260D02*
Y393660D01*
X133708Y363260D02*
X214907D01*
X133708D02*
Y393660D01*
X214907D01*
Y363260D02*
Y393660D01*
X132755Y330240D02*
X213955D01*
X132755D02*
Y360640D01*
X213955D01*
Y330240D02*
Y360640D01*
X132755Y295950D02*
X213955D01*
X132755D02*
Y326350D01*
X213955D01*
Y295950D02*
Y326350D01*
X44490Y295950D02*
X125690D01*
X44490D02*
Y326350D01*
X125690D01*
Y295950D02*
Y326350D01*
X44490Y330240D02*
X125690D01*
X44490D02*
Y360640D01*
X125690D01*
Y330240D02*
Y360640D01*
X45760Y363260D02*
X126960D01*
X45760D02*
Y393660D01*
X126960D01*
Y363260D02*
Y393660D01*
X25399Y336630D02*
Y346630D01*
X20399Y341630D02*
X30399D01*
X478750Y363260D02*
Y393660D01*
X397550D02*
X478750D01*
X397550Y363260D02*
Y393660D01*
Y363260D02*
X478750D01*
Y330240D02*
Y360640D01*
X397550D02*
X478750D01*
X397550Y330240D02*
Y360640D01*
Y330240D02*
X478750D01*
Y295950D02*
Y326350D01*
X397550D02*
X478750D01*
X397550Y295950D02*
Y326350D01*
Y295950D02*
X478750D01*
M02*
