G04*
G04 #@! TF.GenerationSoftware,Altium Limited,Altium Designer,22.5.1 (42)*
G04*
G04 Layer_Color=8388736*
%FSLAX25Y25*%
%MOIN*%
G70*
G04*
G04 #@! TF.SameCoordinates,6DAD0714-FCB9-4B36-A7BF-7B223F3C5BEE*
G04*
G04*
G04 #@! TF.FilePolarity,Negative*
G04*
G01*
G75*
%ADD27R,0.05028X0.01681*%
%ADD28R,0.04437X0.04831*%
%ADD29R,0.03500X0.03500*%
%ADD30R,0.05224X0.07587*%
%ADD31R,0.05224X0.08374*%
%ADD32R,0.08374X0.05224*%
%ADD33R,0.04437X0.06012*%
%ADD34R,0.03500X0.03500*%
%ADD35R,0.05618X0.06406*%
%ADD36R,0.04831X0.04437*%
G04:AMPARAMS|DCode=37|XSize=56.58mil|YSize=41.61mil|CornerRadius=5.25mil|HoleSize=0mil|Usage=FLASHONLY|Rotation=90.000|XOffset=0mil|YOffset=0mil|HoleType=Round|Shape=RoundedRectangle|*
%AMROUNDEDRECTD37*
21,1,0.05658,0.03112,0,0,90.0*
21,1,0.04608,0.04161,0,0,90.0*
1,1,0.01049,0.01556,0.02304*
1,1,0.01049,0.01556,-0.02304*
1,1,0.01049,-0.01556,-0.02304*
1,1,0.01049,-0.01556,0.02304*
%
%ADD37ROUNDEDRECTD37*%
G04:AMPARAMS|DCode=38|XSize=56.58mil|YSize=132.56mil|CornerRadius=6.37mil|HoleSize=0mil|Usage=FLASHONLY|Rotation=90.000|XOffset=0mil|YOffset=0mil|HoleType=Round|Shape=RoundedRectangle|*
%AMROUNDEDRECTD38*
21,1,0.05658,0.11982,0,0,90.0*
21,1,0.04384,0.13256,0,0,90.0*
1,1,0.01274,0.05991,0.02192*
1,1,0.01274,0.05991,-0.02192*
1,1,0.01274,-0.05991,-0.02192*
1,1,0.01274,-0.05991,0.02192*
%
%ADD38ROUNDEDRECTD38*%
%ADD39C,0.06406*%
%ADD40R,0.06406X0.06406*%
%ADD41R,0.06406X0.06406*%
%ADD42C,0.03295*%
%ADD43O,0.04831X0.06799*%
%ADD44C,0.20185*%
%ADD45C,0.05894*%
%ADD46R,0.06122X0.06122*%
%ADD47C,0.06122*%
%ADD48C,0.09555*%
D27*
X218807Y34500D02*
D03*
X230500D02*
D03*
X218807Y40405D02*
D03*
Y42374D02*
D03*
Y44342D02*
D03*
Y46311D02*
D03*
Y48280D02*
D03*
Y50248D02*
D03*
Y56154D02*
D03*
X230500Y40405D02*
D03*
Y42374D02*
D03*
Y44342D02*
D03*
Y46311D02*
D03*
Y48280D02*
D03*
Y50248D02*
D03*
Y56154D02*
D03*
D28*
X209755Y47133D02*
D03*
Y53826D02*
D03*
Y30416D02*
D03*
Y37109D02*
D03*
X78000Y59000D02*
D03*
Y52307D02*
D03*
X87000Y59193D02*
D03*
Y52500D02*
D03*
D29*
X203000Y37244D02*
D03*
Y42756D02*
D03*
X202961Y53394D02*
D03*
Y47882D02*
D03*
X197000Y42744D02*
D03*
Y48256D02*
D03*
X83539Y77994D02*
D03*
Y83506D02*
D03*
X76961D02*
D03*
Y77994D02*
D03*
Y72256D02*
D03*
Y66744D02*
D03*
X83500Y72256D02*
D03*
Y66744D02*
D03*
D30*
X10079Y6269D02*
D03*
X10000Y37500D02*
D03*
X158079Y59269D02*
D03*
X158000Y90500D02*
D03*
X9921Y150231D02*
D03*
X10000Y119000D02*
D03*
D31*
X62417Y109996D02*
D03*
X54543D02*
D03*
X46669D02*
D03*
X38795D02*
D03*
X30921D02*
D03*
X23047D02*
D03*
X15173D02*
D03*
X7299D02*
D03*
Y47004D02*
D03*
X23047D02*
D03*
X15173D02*
D03*
X30921D02*
D03*
X38795D02*
D03*
X46669D02*
D03*
X54543D02*
D03*
X62417D02*
D03*
D32*
X68244Y98185D02*
D03*
Y90311D02*
D03*
Y82437D02*
D03*
Y74563D02*
D03*
Y66689D02*
D03*
Y58815D02*
D03*
D33*
X203000Y112831D02*
D03*
X206740Y104169D02*
D03*
X199260D02*
D03*
X203000Y77169D02*
D03*
X199260Y85831D02*
D03*
X206740D02*
D03*
D34*
X205106Y98000D02*
D03*
X199594D02*
D03*
Y92500D02*
D03*
X205106D02*
D03*
X152256Y112000D02*
D03*
X146744D02*
D03*
X164756D02*
D03*
X159244D02*
D03*
D35*
X181366Y58500D02*
D03*
X173886Y58500D02*
D03*
X173886Y69156D02*
D03*
X181366Y69156D02*
D03*
X173886Y90469D02*
D03*
X181366Y90469D02*
D03*
X181366Y79812D02*
D03*
X173886Y79812D02*
D03*
X130886Y109468D02*
D03*
X138366Y109468D02*
D03*
D36*
X128693Y54000D02*
D03*
X122000D02*
D03*
X129193Y96500D02*
D03*
X122500D02*
D03*
D37*
X122484Y62661D02*
D03*
X131500D02*
D03*
X140516D02*
D03*
D38*
X131500Y89000D02*
D03*
D39*
X79500Y92500D02*
D03*
Y102500D02*
D03*
X89500Y92500D02*
D03*
X111500Y102000D02*
D03*
X101500Y92000D02*
D03*
X111500D02*
D03*
X101500Y82000D02*
D03*
X111500D02*
D03*
X101500Y72000D02*
D03*
X111500D02*
D03*
X101500Y62000D02*
D03*
X111500D02*
D03*
X101500Y52000D02*
D03*
X111500D02*
D03*
D40*
X89500Y102500D02*
D03*
D41*
X101500Y102000D02*
D03*
D42*
X224654Y29579D02*
D03*
Y61075D02*
D03*
D43*
X219024Y29579D02*
D03*
Y61075D02*
D03*
X230283Y29579D02*
D03*
Y61075D02*
D03*
D44*
X220500Y13000D02*
D03*
Y143500D02*
D03*
D45*
X196000Y18000D02*
D03*
Y8000D02*
D03*
Y28000D02*
D03*
X173500Y33000D02*
D03*
X163500D02*
D03*
X183500D02*
D03*
X173500Y20000D02*
D03*
X163500D02*
D03*
X183500D02*
D03*
X173500Y7500D02*
D03*
X163500D02*
D03*
X183500D02*
D03*
X138500Y33000D02*
D03*
X128500D02*
D03*
X148500D02*
D03*
X138625Y20000D02*
D03*
X128625D02*
D03*
X148625D02*
D03*
X138625Y7500D02*
D03*
X128625D02*
D03*
X148625D02*
D03*
X104000Y33000D02*
D03*
X94000D02*
D03*
X114000D02*
D03*
X104000Y20000D02*
D03*
X94000D02*
D03*
X114000D02*
D03*
X104000Y7500D02*
D03*
X94000D02*
D03*
X114000D02*
D03*
X68875D02*
D03*
X58875D02*
D03*
X78875D02*
D03*
X68875Y20000D02*
D03*
X58875D02*
D03*
X78875D02*
D03*
X69000Y33000D02*
D03*
X59000D02*
D03*
X79000D02*
D03*
X34000D02*
D03*
X24000D02*
D03*
X44000D02*
D03*
Y20000D02*
D03*
X24000D02*
D03*
X34000D02*
D03*
Y7500D02*
D03*
X24000D02*
D03*
X44000D02*
D03*
X195000Y139000D02*
D03*
Y149000D02*
D03*
Y129000D02*
D03*
X137750Y122500D02*
D03*
X127750D02*
D03*
X147750D02*
D03*
X137750Y136000D02*
D03*
X127750D02*
D03*
X147750D02*
D03*
X137875Y149000D02*
D03*
X127875D02*
D03*
X147875D02*
D03*
X103000Y122500D02*
D03*
X93000D02*
D03*
X113000D02*
D03*
X103000Y136000D02*
D03*
X93000D02*
D03*
X113000D02*
D03*
X103250Y149000D02*
D03*
X93250D02*
D03*
X113250D02*
D03*
X68625D02*
D03*
X58625D02*
D03*
X78625D02*
D03*
X68250Y136000D02*
D03*
X58250D02*
D03*
X78250D02*
D03*
X68250Y122500D02*
D03*
X58250D02*
D03*
X78250D02*
D03*
X33500D02*
D03*
X23500D02*
D03*
X43500D02*
D03*
X33500Y136000D02*
D03*
X23500D02*
D03*
X43500D02*
D03*
X34000Y149000D02*
D03*
X24000D02*
D03*
X44000D02*
D03*
X182500D02*
D03*
X162500D02*
D03*
X172500D02*
D03*
X182500Y136000D02*
D03*
X162500D02*
D03*
X172500D02*
D03*
X182500Y122500D02*
D03*
X162500D02*
D03*
X172500D02*
D03*
D46*
X216500Y85500D02*
D03*
D47*
Y95342D02*
D03*
Y103217D02*
D03*
Y113059D02*
D03*
D48*
X227169Y73413D02*
D03*
Y125146D02*
D03*
M02*
