M48
;Layer_Color=9474304
;FILE_FORMAT=2:5
INCH,TZ
;TYPE=PLATED
T1F00S00C0.01200
T3F00S00C0.03543
T4F00S00C0.03622
T5F00S00C0.04016
T6F00S00C0.13780
;TYPE=NON_PLATED
T7F00S00C0.02795
T8F00S00C0.09055
%
T01
X10079Y6269
X40485Y7985
X40000Y20000
Y33000
X37000Y40500
X32000Y41000
X42500Y41500
X47112Y43874
X54507Y44431
X47000Y53941
X37000Y55642
X83000Y47500
X93500Y49000
Y52500
X95529Y46465
X98206Y44543
X74918Y32620
X74522Y20084
X86500Y20817
Y17736
Y14000
X75000Y7501
X128693Y54000
X162500Y51307
X189000Y47000
X203000Y42756
X223000Y44500
X226000Y43000
X224287Y48331
X225000Y51500
X216500Y53000
X200000Y70500
X196882Y75114
X196645Y93145
X209500Y99000
X170500Y102144
X169500Y107000
X161500Y102000
X162500Y89693
Y83000
X167001Y79072
X162500Y73847
Y67154
X166000Y63000
X162500Y58000
X151000
X155000Y73693
X135500Y76000
X128000Y79500
X136000Y89000
X129193Y96500
X124120Y96481
X106500Y96500
X89000Y78000
X76961Y77994
X77000Y66741
X61500
X58365Y66670
X58500Y73500
X61000Y58590
X92500Y57500
X92192Y64406
X126919Y62581
X174000Y64000
X181032Y63746
X181366Y79812
X147500Y93500
X130886Y108788
X62500Y111500
X66000Y116000
X73500Y135000
X75000Y140000
X51000Y115500
Y101000
X46500Y101756
X46725Y96469
X48378Y88878
X48499Y81305
X48500Y73000
X43328Y73805
X40210Y67836
X37500Y66000
X35016Y68971
X31177Y73114
X32457Y82386
X29827Y95673
X31000Y101500
X19000Y95000
X16500Y97062
X13000Y98500
X6000Y82000
X6866Y68019
X9445Y65984
X11984Y63911
X14543Y61824
X17073Y59261
X20247Y58106
X15500Y56000
X9500
X4316
X6866Y60599
X27500Y56500
X32000Y58500
X50500Y59500
X48500Y66307
X55000Y71500
X30918Y132318
X27683Y132500
X9921Y150231
T03
X101500Y52000
X111500
Y62000
Y72000
Y82000
Y92000
Y102000
X101500
Y92000
Y82000
Y72000
Y62000
X89500Y92500
X79500
Y102500
X89500
T04
X216500Y85500
Y95342
Y103217
Y113059
T05
X24000Y7500
X34000
X44000
Y20000
X34000
X24000
Y33000
X34000
X44000
X59000
X69000
X79000
X78875Y20000
X68875
X58875
Y7500
X68875
X78875
X94000
X104000
X114000
Y20000
X104000
X94000
Y33000
X104000
X114000
X128500
X138500
X148500
X148625Y20000
X138625
X128625
Y7500
X138625
X148625
X163500
X173500
X183500
Y20000
X173500
X163500
Y33000
X173500
X183500
X196000Y28000
Y18000
Y8000
X195000Y129000
Y139000
Y149000
X182500
X172500
X162500
Y136000
X172500
X182500
Y122500
X172500
X162500
X147750
X137750
X127750
Y136000
X137750
X147750
X147875Y149000
X137875
X127875
X113250
X103250
X93250
X93000Y136000
X103000
X113000
Y122500
X103000
X93000
X78250
X68250
X58250
Y136000
X68250
X78250
X78625Y149000
X68625
X58625
X44000
X34000
X24000
X23500Y136000
X33500
X43500
Y122500
X33500
X23500
T06
X220500Y13000
Y143500
T07
X224654Y29579
Y61075
T08
X227169Y73413
Y125146
M30
