G04*
G04 #@! TF.GenerationSoftware,Altium Limited,Altium Designer,22.5.1 (42)*
G04*
G04 Layer_Color=255*
%FSLAX25Y25*%
%MOIN*%
G70*
G04*
G04 #@! TF.SameCoordinates,6DAD0714-FCB9-4B36-A7BF-7B223F3C5BEE*
G04*
G04*
G04 #@! TF.FilePolarity,Positive*
G04*
G01*
G75*
%ADD16R,0.03937X0.04331*%
%ADD17R,0.03000X0.03000*%
%ADD50C,0.05906*%
%ADD51R,0.05906X0.05906*%
%ADD52R,0.05906X0.05906*%
%ADD53C,0.02795*%
%ADD54O,0.04331X0.06299*%
%ADD55C,0.19685*%
%ADD56C,0.05394*%
%ADD57R,0.05622X0.05622*%
%ADD58C,0.05622*%
%ADD59C,0.09055*%
%ADD76O,0.01772X0.05512*%
%ADD77R,0.04724X0.02362*%
%ADD78O,0.05512X0.02362*%
%ADD79R,0.05906X0.14567*%
D16*
X155000Y67000D02*
D03*
Y73693D02*
D03*
X162500Y67154D02*
D03*
Y73847D02*
D03*
Y83000D02*
D03*
Y89693D02*
D03*
Y51307D02*
D03*
Y58000D02*
D03*
X48500Y82307D02*
D03*
Y89000D02*
D03*
Y66307D02*
D03*
Y73000D02*
D03*
D17*
X156500Y54244D02*
D03*
Y59756D02*
D03*
X46500Y96244D02*
D03*
Y101756D02*
D03*
X47000Y59012D02*
D03*
Y53500D02*
D03*
D50*
X79500Y92500D02*
D03*
Y102500D02*
D03*
X89500Y92500D02*
D03*
X111500Y102000D02*
D03*
X101500Y92000D02*
D03*
X111500D02*
D03*
X101500Y82000D02*
D03*
X111500D02*
D03*
X101500Y72000D02*
D03*
X111500D02*
D03*
X101500Y62000D02*
D03*
X111500D02*
D03*
X101500Y52000D02*
D03*
X111500D02*
D03*
D51*
X89500Y102500D02*
D03*
D52*
X101500Y102000D02*
D03*
D53*
X224654Y29579D02*
D03*
Y61075D02*
D03*
D54*
X219024Y29579D02*
D03*
Y61075D02*
D03*
X230283Y29579D02*
D03*
Y61075D02*
D03*
D55*
X220500Y13000D02*
D03*
Y143500D02*
D03*
D56*
X196000Y18000D02*
D03*
Y8000D02*
D03*
Y28000D02*
D03*
X173500Y33000D02*
D03*
X163500D02*
D03*
X183500D02*
D03*
X173500Y20000D02*
D03*
X163500D02*
D03*
X183500D02*
D03*
X173500Y7500D02*
D03*
X163500D02*
D03*
X183500D02*
D03*
X138500Y33000D02*
D03*
X128500D02*
D03*
X148500D02*
D03*
X138625Y20000D02*
D03*
X128625D02*
D03*
X148625D02*
D03*
X138625Y7500D02*
D03*
X128625D02*
D03*
X148625D02*
D03*
X104000Y33000D02*
D03*
X94000D02*
D03*
X114000D02*
D03*
X104000Y20000D02*
D03*
X94000D02*
D03*
X114000D02*
D03*
X104000Y7500D02*
D03*
X94000D02*
D03*
X114000D02*
D03*
X68875D02*
D03*
X58875D02*
D03*
X78875D02*
D03*
X68875Y20000D02*
D03*
X58875D02*
D03*
X78875D02*
D03*
X69000Y33000D02*
D03*
X59000D02*
D03*
X79000D02*
D03*
X34000D02*
D03*
X24000D02*
D03*
X44000D02*
D03*
Y20000D02*
D03*
X24000D02*
D03*
X34000D02*
D03*
Y7500D02*
D03*
X24000D02*
D03*
X44000D02*
D03*
X195000Y139000D02*
D03*
Y149000D02*
D03*
Y129000D02*
D03*
X137750Y122500D02*
D03*
X127750D02*
D03*
X147750D02*
D03*
X137750Y136000D02*
D03*
X127750D02*
D03*
X147750D02*
D03*
X137875Y149000D02*
D03*
X127875D02*
D03*
X147875D02*
D03*
X103000Y122500D02*
D03*
X93000D02*
D03*
X113000D02*
D03*
X103000Y136000D02*
D03*
X93000D02*
D03*
X113000D02*
D03*
X103250Y149000D02*
D03*
X93250D02*
D03*
X113250D02*
D03*
X68625D02*
D03*
X58625D02*
D03*
X78625D02*
D03*
X68250Y136000D02*
D03*
X58250D02*
D03*
X78250D02*
D03*
X68250Y122500D02*
D03*
X58250D02*
D03*
X78250D02*
D03*
X33500D02*
D03*
X23500D02*
D03*
X43500D02*
D03*
X33500Y136000D02*
D03*
X23500D02*
D03*
X43500D02*
D03*
X34000Y149000D02*
D03*
X24000D02*
D03*
X44000D02*
D03*
X182500D02*
D03*
X162500D02*
D03*
X172500D02*
D03*
X182500Y136000D02*
D03*
X162500D02*
D03*
X172500D02*
D03*
X182500Y122500D02*
D03*
X162500D02*
D03*
X172500D02*
D03*
D57*
X216500Y85500D02*
D03*
D58*
Y95342D02*
D03*
Y103217D02*
D03*
Y113059D02*
D03*
D59*
X227169Y73413D02*
D03*
Y125146D02*
D03*
D76*
X40134Y82386D02*
D03*
X37575D02*
D03*
X35016D02*
D03*
X32457D02*
D03*
X29898D02*
D03*
X27339D02*
D03*
X24780D02*
D03*
X22220D02*
D03*
X19661D02*
D03*
X17102D02*
D03*
X14543D02*
D03*
X11984D02*
D03*
X9425D02*
D03*
X6866D02*
D03*
X40134Y105614D02*
D03*
X37575D02*
D03*
X35016D02*
D03*
X32457D02*
D03*
X29898D02*
D03*
X27339D02*
D03*
X24780D02*
D03*
X22220D02*
D03*
X19661D02*
D03*
X17102D02*
D03*
X14543D02*
D03*
X11984D02*
D03*
X9425D02*
D03*
X6866D02*
D03*
Y73114D02*
D03*
X9425D02*
D03*
X11984D02*
D03*
X14543D02*
D03*
X17102D02*
D03*
X19661D02*
D03*
X22220D02*
D03*
X24780D02*
D03*
X27339D02*
D03*
X29898D02*
D03*
X32457D02*
D03*
X35016D02*
D03*
X37575D02*
D03*
X40134D02*
D03*
X6866Y49886D02*
D03*
X9425D02*
D03*
X11984D02*
D03*
X14543D02*
D03*
X17102D02*
D03*
X19661D02*
D03*
X22220D02*
D03*
X24780D02*
D03*
X27339D02*
D03*
X29898D02*
D03*
X32457D02*
D03*
X35016D02*
D03*
X37575D02*
D03*
X40134D02*
D03*
D77*
X144047Y93500D02*
D03*
Y88500D02*
D03*
Y83500D02*
D03*
Y78500D02*
D03*
Y73500D02*
D03*
Y68500D02*
D03*
Y63500D02*
D03*
Y58500D02*
D03*
X122000D02*
D03*
Y63500D02*
D03*
Y68500D02*
D03*
Y73500D02*
D03*
Y78500D02*
D03*
Y83500D02*
D03*
Y88500D02*
D03*
Y93500D02*
D03*
D78*
X170173Y51500D02*
D03*
Y56500D02*
D03*
Y61500D02*
D03*
Y66500D02*
D03*
X191827Y51500D02*
D03*
Y56500D02*
D03*
Y61500D02*
D03*
Y66500D02*
D03*
D79*
X188000Y82500D02*
D03*
X175795D02*
D03*
M02*
